<?xml version="1.0" encoding="UTF-8" standalone="no"?>
<!DOCTYPE svg PUBLIC "-//W3C//DTD SVG 1.1//EN"
 "http://www.w3.org/Graphics/SVG/1.1/DTD/svg11.dtd">
<!-- Generated by graphviz version 2.43.0 (0)
 -->
<!-- Title: ml Pages: 1 -->
<svg width="2295pt" height="470pt"
 viewBox="0.00 0.00 2294.50 470.00" xmlns="http://www.w3.org/2000/svg" xmlns:xlink="http://www.w3.org/1999/xlink">
<g id="graph0" class="graph" transform="scale(1 1) rotate(0) translate(4 466)">
<title>ml</title>
<polygon fill="white" stroke="transparent" points="-4,4 -4,-466 2290.5,-466 2290.5,4 -4,4"/>
<!-- ndParseBFieldElementError -->
<g id="node1" class="node">
<title>ndParseBFieldElementError</title>
<g id="a_node1_0"><a xlink:href="https://github.com/Neptune-Crypto/twenty-first/blob/master/src/error.rs#:~:text=enum%20ParseBFieldElementError" xlink:title="&lt;TABLE&gt;">
<polygon fill="yellow" stroke="transparent" points="156.5,-419.5 156.5,-456.5 343.5,-456.5 343.5,-419.5 156.5,-419.5"/>
<polygon fill="none" stroke="black" points="156.5,-419.5 156.5,-456.5 343.5,-456.5 343.5,-419.5 156.5,-419.5"/>
<text text-anchor="start" x="167.5" y="-435.3" font-family="Arial" font-weight="bold" font-size="14.00">ParseBFieldElementError</text>
<polygon fill="none" stroke="black" points="155,-419 155,-458 344,-458 344,-419 155,-419"/>
</a>
</g>
</g>
<!-- ndTryFromDigestError -->
<g id="node4" class="node">
<title>ndTryFromDigestError</title>
<g id="a_node4_1"><a xlink:href="https://github.com/Neptune-Crypto/twenty-first/blob/master/src/error.rs#:~:text=enum%20TryFromDigestError" xlink:title="&lt;TABLE&gt;">
<polygon fill="yellow" stroke="transparent" points="173.5,-336.5 173.5,-373.5 325.5,-373.5 325.5,-336.5 173.5,-336.5"/>
<polygon fill="none" stroke="black" points="173.5,-336.5 173.5,-373.5 325.5,-373.5 325.5,-336.5 173.5,-336.5"/>
<text text-anchor="start" x="184.5" y="-352.3" font-family="Arial" font-weight="bold" font-size="14.00">TryFromDigestError</text>
<polygon fill="none" stroke="black" points="172.5,-336 172.5,-375 326.5,-375 326.5,-336 172.5,-336"/>
</a>
</g>
</g>
<!-- ndParseBFieldElementError&#45;&gt;ndTryFromDigestError -->
<g id="edge1" class="edge">
<title>ndParseBFieldElementError&#45;&gt;ndTryFromDigestError</title>
<path fill="none" stroke="black" d="M249.5,-414.94C249.5,-407.63 249.5,-399.34 249.5,-391.35"/>
<polygon fill="black" stroke="black" points="249.5,-391.22 245.5,-385.22 249.5,-379.22 253.5,-385.22 249.5,-391.22"/>
</g>
<!-- ndTryFromU32sError -->
<g id="node2" class="node">
<title>ndTryFromU32sError</title>
<g id="a_node2_2"><a xlink:href="https://github.com/Neptune-Crypto/twenty-first/blob/master/src/error.rs#:~:text=enum%20TryFromU32sError" xlink:title="&lt;TABLE&gt;">
<polygon fill="yellow" stroke="transparent" points="379.5,-419.5 379.5,-456.5 522.5,-456.5 522.5,-419.5 379.5,-419.5"/>
<polygon fill="none" stroke="black" points="379.5,-419.5 379.5,-456.5 522.5,-456.5 522.5,-419.5 379.5,-419.5"/>
<text text-anchor="start" x="390.5" y="-435.3" font-family="Arial" font-weight="bold" font-size="14.00">TryFromU32sError</text>
<polygon fill="none" stroke="black" points="378,-419 378,-458 523,-458 523,-419 378,-419"/>
</a>
</g>
</g>
<!-- ndTryFromXFieldElementError -->
<g id="node3" class="node">
<title>ndTryFromXFieldElementError</title>
<g id="a_node3_3"><a xlink:href="https://github.com/Neptune-Crypto/twenty-first/blob/master/src/error.rs#:~:text=enum%20TryFromXFieldElementError" xlink:title="&lt;TABLE&gt;">
<polygon fill="yellow" stroke="transparent" points="558.5,-419.5 558.5,-456.5 762.5,-456.5 762.5,-419.5 558.5,-419.5"/>
<polygon fill="none" stroke="black" points="558.5,-419.5 558.5,-456.5 762.5,-456.5 762.5,-419.5 558.5,-419.5"/>
<text text-anchor="start" x="569.5" y="-435.3" font-family="Arial" font-weight="bold" font-size="14.00">TryFromXFieldElementError</text>
<polygon fill="none" stroke="black" points="557.5,-419 557.5,-458 763.5,-458 763.5,-419 557.5,-419"/>
</a>
</g>
</g>
<!-- ndDomain -->
<g id="node5" class="node">
<title>ndDomain</title>
<g id="a_node5_4"><a xlink:href="https://github.com/Neptune-Crypto/twenty-first/blob/master/src/util_types/algebraic_hasher.rs#:~:text=enum%20Domain" xlink:title="&lt;TABLE&gt;">
<polygon fill="yellow" stroke="transparent" points="9.5,-253.5 9.5,-290.5 82.5,-290.5 82.5,-253.5 9.5,-253.5"/>
<polygon fill="none" stroke="black" points="9.5,-253.5 9.5,-290.5 82.5,-290.5 82.5,-253.5 9.5,-253.5"/>
<text text-anchor="start" x="20.5" y="-269.3" font-family="Arial" font-weight="bold" font-size="14.00">Domain</text>
<polygon fill="none" stroke="black" points="8,-253 8,-292 83,-292 83,-253 8,-253"/>
</a>
</g>
</g>
<!-- ndTip5 -->
<g id="node25" class="node">
<title>ndTip5</title>
<g id="a_node25_5"><a xlink:href="https://github.com/Neptune-Crypto/twenty-first/blob/master/src/math/tip5.rs#:~:text=struct%20Tip5" xlink:title="&lt;TABLE&gt;">
<polygon fill="lightblue" stroke="transparent" points="129.5,-170.5 129.5,-207.5 179.5,-207.5 179.5,-170.5 129.5,-170.5"/>
<polygon fill="none" stroke="black" points="129.5,-170.5 129.5,-207.5 179.5,-207.5 179.5,-170.5 129.5,-170.5"/>
<text text-anchor="start" x="140.5" y="-186.3" font-family="Arial" font-weight="bold" font-size="14.00">Tip5</text>
<polygon fill="none" stroke="black" points="128.5,-170 128.5,-209 180.5,-209 180.5,-170 128.5,-170"/>
</a>
</g>
</g>
<!-- ndDomain&#45;&gt;ndTip5 -->
<g id="edge2" class="edge">
<title>ndDomain&#45;&gt;ndTip5</title>
<path fill="none" stroke="black" stroke-dasharray="5,2" d="M75.86,-248.94C88.16,-239.8 102.51,-229.13 115.57,-219.43"/>
<polygon fill="black" stroke="black" points="123.92,-213.22 118.58,-222.8 119.91,-216.21 115.9,-219.19 115.9,-219.19 115.9,-219.19 119.91,-216.21 113.21,-215.58 123.92,-213.22 123.92,-213.22"/>
</g>
<!-- ndSponge -->
<g id="node6" class="node">
<title>ndSponge</title>
<g id="a_node6_6"><a xlink:href="https://github.com/Neptune-Crypto/twenty-first/blob/master/src/util_types/algebraic_hasher.rs#:~:text=trait%20Sponge" xlink:title="&lt;TABLE&gt;">
<polygon fill="lightgreen" stroke="transparent" points="118.5,-253.5 118.5,-290.5 190.5,-290.5 190.5,-253.5 118.5,-253.5"/>
<polygon fill="none" stroke="black" points="118.5,-253.5 118.5,-290.5 190.5,-290.5 190.5,-253.5 118.5,-253.5"/>
<text text-anchor="start" x="129.5" y="-269.3" font-family="Arial" font-weight="bold" font-size="14.00">Sponge</text>
<polygon fill="none" stroke="black" points="117.5,-253 117.5,-292 191.5,-292 191.5,-253 117.5,-253"/>
</a>
</g>
</g>
<!-- ndSponge&#45;&gt;ndTip5 -->
<g id="edge3" class="edge">
<title>ndSponge&#45;&gt;ndTip5</title>
<path fill="none" stroke="black" stroke-dasharray="5,2" d="M154.5,-248.94C154.5,-241.02 154.5,-231.95 154.5,-223.36"/>
<polygon fill="none" stroke="black" points="158,-223.22 154.5,-213.22 151,-223.22 158,-223.22"/>
</g>
<!-- ndAlgebraicHasher -->
<g id="node7" class="node">
<title>ndAlgebraicHasher</title>
<g id="a_node7_7"><a xlink:href="https://github.com/Neptune-Crypto/twenty-first/blob/master/src/util_types/algebraic_hasher.rs#:~:text=trait%20AlgebraicHasher" xlink:title="&lt;TABLE&gt;">
<polygon fill="lightgreen" stroke="transparent" points="226.5,-253.5 226.5,-290.5 356.5,-290.5 356.5,-253.5 226.5,-253.5"/>
<polygon fill="none" stroke="black" points="226.5,-253.5 226.5,-290.5 356.5,-290.5 356.5,-253.5 226.5,-253.5"/>
<text text-anchor="start" x="237.5" y="-269.3" font-family="Arial" font-weight="bold" font-size="14.00">AlgebraicHasher</text>
<polygon fill="none" stroke="black" points="225.5,-253 225.5,-292 357.5,-292 357.5,-253 225.5,-253"/>
</a>
</g>
</g>
<!-- ndAlgebraicHasher&#45;&gt;ndTip5 -->
<g id="edge4" class="edge">
<title>ndAlgebraicHasher&#45;&gt;ndTip5</title>
<path fill="none" stroke="black" stroke-dasharray="5,2" d="M253.34,-248.94C236.08,-238.73 215.6,-226.62 197.77,-216.08"/>
<polygon fill="none" stroke="black" points="199.11,-212.81 188.72,-210.73 195.54,-218.83 199.11,-212.81"/>
</g>
<!-- ndMerkleTreeMaker -->
<g id="node8" class="node">
<title>ndMerkleTreeMaker</title>
<g id="a_node8_8"><a xlink:href="https://github.com/Neptune-Crypto/twenty-first/blob/master/src/util_types/merkle_tree_maker.rs#:~:text=trait%20MerkleTreeMaker" xlink:title="&lt;TABLE&gt;">
<polygon fill="lightgreen" stroke="transparent" points="1713.5,-419.5 1713.5,-456.5 1847.5,-456.5 1847.5,-419.5 1713.5,-419.5"/>
<polygon fill="none" stroke="black" points="1713.5,-419.5 1713.5,-456.5 1847.5,-456.5 1847.5,-419.5 1713.5,-419.5"/>
<text text-anchor="start" x="1724.5" y="-435.3" font-family="Arial" font-weight="bold" font-size="14.00">MerkleTreeMaker</text>
<polygon fill="none" stroke="black" points="1712.5,-419 1712.5,-458 1848.5,-458 1848.5,-419 1712.5,-419"/>
</a>
</g>
</g>
<!-- ndMmr -->
<g id="node9" class="node">
<title>ndMmr</title>
<g id="a_node9_9"><a xlink:href="https://github.com/Neptune-Crypto/twenty-first/blob/master/src/util_types/mmr/mmr_trait.rs#:~:text=trait%20Mmr" xlink:title="&lt;TABLE&gt;">
<polygon fill="lightgreen" stroke="transparent" points="376.5,-170.5 376.5,-207.5 429.5,-207.5 429.5,-170.5 376.5,-170.5"/>
<polygon fill="none" stroke="black" points="376.5,-170.5 376.5,-207.5 429.5,-207.5 429.5,-170.5 376.5,-170.5"/>
<text text-anchor="start" x="387.5" y="-186.3" font-family="Arial" font-weight="bold" font-size="14.00">Mmr</text>
<polygon fill="none" stroke="black" points="375,-170 375,-209 430,-209 430,-170 375,-170"/>
</a>
</g>
</g>
<!-- ndMmrAccumulator -->
<g id="node10" class="node">
<title>ndMmrAccumulator</title>
<g id="a_node10_10"><a xlink:href="https://github.com/Neptune-Crypto/twenty-first/blob/master/src/util_types/mmr/mmr_accumulator.rs#:~:text=struct%20MmrAccumulator" xlink:title="&lt;TABLE&gt;">
<polygon fill="lightblue" stroke="transparent" points="418.5,-87.5 418.5,-124.5 554.5,-124.5 554.5,-87.5 418.5,-87.5"/>
<polygon fill="none" stroke="black" points="418.5,-87.5 418.5,-124.5 554.5,-124.5 554.5,-87.5 418.5,-87.5"/>
<text text-anchor="start" x="429.5" y="-103.3" font-family="Arial" font-weight="bold" font-size="14.00">MmrAccumulator</text>
<polygon fill="none" stroke="black" points="417.5,-87 417.5,-126 555.5,-126 555.5,-87 417.5,-87"/>
</a>
</g>
</g>
<!-- ndMmr&#45;&gt;ndMmrAccumulator -->
<g id="edge5" class="edge">
<title>ndMmr&#45;&gt;ndMmrAccumulator</title>
<path fill="none" stroke="black" stroke-dasharray="5,2" d="M425.9,-165.94C435.11,-157.06 445.81,-146.74 455.63,-137.27"/>
<polygon fill="none" stroke="black" points="458.17,-139.68 462.94,-130.22 453.31,-134.64 458.17,-139.68"/>
</g>
<!-- ndMockMmr -->
<g id="node17" class="node">
<title>ndMockMmr</title>
<g id="a_node17_11"><a xlink:href="https://github.com/Neptune-Crypto/twenty-first/blob/master/src/mock/mmr/mock_mmr.rs#:~:text=struct%20MockMmr" xlink:title="&lt;TABLE&gt;">
<polygon fill="lightblue" stroke="transparent" points="579.5,-4.5 579.5,-41.5 667.5,-41.5 667.5,-4.5 579.5,-4.5"/>
<polygon fill="none" stroke="black" points="579.5,-4.5 579.5,-41.5 667.5,-41.5 667.5,-4.5 579.5,-4.5"/>
<text text-anchor="start" x="590.5" y="-20.3" font-family="Arial" font-weight="bold" font-size="14.00">MockMmr</text>
<polygon fill="none" stroke="black" points="578.5,-4 578.5,-43 668.5,-43 668.5,-4 578.5,-4"/>
</a>
</g>
</g>
<!-- ndMmr&#45;&gt;ndMockMmr -->
<g id="edge6" class="edge">
<title>ndMmr&#45;&gt;ndMockMmr</title>
<path fill="none" stroke="black" stroke-dasharray="5,2" d="M394.56,-165.78C387.99,-142.5 382.37,-106.5 400.5,-83 419.97,-57.76 501.55,-41.28 560.4,-32.43"/>
<polygon fill="none" stroke="black" points="560.98,-35.89 570.37,-30.97 559.97,-28.96 560.98,-35.89"/>
</g>
<!-- ndMmrAccumulator&#45;&gt;ndMockMmr -->
<g id="edge7" class="edge">
<title>ndMmrAccumulator&#45;&gt;ndMockMmr</title>
<path fill="none" stroke="black" d="M524.66,-82.94C540.71,-73.45 559.54,-62.32 576.43,-52.33"/>
<polygon fill="black" stroke="black" points="585.07,-47.22 578.75,-56.19 580.76,-49.77 576.46,-52.31 576.46,-52.31 576.46,-52.31 580.76,-49.77 574.17,-48.44 585.07,-47.22 585.07,-47.22"/>
</g>
<!-- ndMmrMembershipProof -->
<g id="node11" class="node">
<title>ndMmrMembershipProof</title>
<g id="a_node11_12"><a xlink:href="https://github.com/Neptune-Crypto/twenty-first/blob/master/src/util_types/mmr/mmr_membership_proof.rs#:~:text=struct%20MmrMembershipProof" xlink:title="&lt;TABLE&gt;">
<polygon fill="lightblue" stroke="transparent" points="503.5,-170.5 503.5,-207.5 672.5,-207.5 672.5,-170.5 503.5,-170.5"/>
<polygon fill="none" stroke="black" points="503.5,-170.5 503.5,-207.5 672.5,-207.5 672.5,-170.5 503.5,-170.5"/>
<text text-anchor="start" x="514.5" y="-186.3" font-family="Arial" font-weight="bold" font-size="14.00">MmrMembershipProof</text>
<polygon fill="none" stroke="black" points="502,-170 502,-209 673,-209 673,-170 502,-170"/>
</a>
</g>
</g>
<!-- ndMmrMembershipProof&#45;&gt;ndMmrAccumulator -->
<g id="edge8" class="edge">
<title>ndMmrMembershipProof&#45;&gt;ndMmrAccumulator</title>
<path fill="none" stroke="black" d="M559.37,-165.94C548.08,-156.88 534.92,-146.33 522.92,-136.71"/>
<polygon fill="black" stroke="black" points="514.83,-130.22 525.45,-132.97 518.73,-133.35 522.63,-136.48 522.63,-136.48 522.63,-136.48 518.73,-133.35 519.82,-139.99 514.83,-130.22 514.83,-130.22"/>
</g>
<!-- ndMmrMembershipProof&#45;&gt;ndMockMmr -->
<g id="edge9" class="edge">
<title>ndMmrMembershipProof&#45;&gt;ndMockMmr</title>
<path fill="none" stroke="black" d="M638.72,-165.72C652.88,-156.75 666.54,-144.94 674.5,-130 684.32,-111.56 681.83,-102.56 674.5,-83 670.67,-72.77 664.14,-63.15 657.02,-54.78"/>
<polygon fill="black" stroke="black" points="650.08,-47.16 660.14,-51.52 653.45,-50.86 656.81,-54.55 656.81,-54.55 656.81,-54.55 653.45,-50.86 653.49,-57.59 650.08,-47.16 650.08,-47.16"/>
</g>
<!-- ndMerkleTree -->
<g id="node12" class="node">
<title>ndMerkleTree</title>
<g id="a_node12_13"><a xlink:href="https://github.com/Neptune-Crypto/twenty-first/blob/master/src/util_types/merkle_tree.rs#:~:text=struct%20MerkleTree" xlink:title="&lt;TABLE&gt;">
<polygon fill="lightblue" stroke="transparent" points="820.5,-87.5 820.5,-124.5 914.5,-124.5 914.5,-87.5 820.5,-87.5"/>
<polygon fill="none" stroke="black" points="820.5,-87.5 820.5,-124.5 914.5,-124.5 914.5,-87.5 820.5,-87.5"/>
<text text-anchor="start" x="831.5" y="-103.3" font-family="Arial" font-weight="bold" font-size="14.00">MerkleTree</text>
<polygon fill="none" stroke="black" points="819.5,-87 819.5,-126 915.5,-126 915.5,-87 819.5,-87"/>
</a>
</g>
</g>
<!-- ndMerkleTreeInclusionProof -->
<g id="node13" class="node">
<title>ndMerkleTreeInclusionProof</title>
<g id="a_node13_14"><a xlink:href="https://github.com/Neptune-Crypto/twenty-first/blob/master/src/util_types/merkle_tree.rs#:~:text=struct%20MerkleTreeInclusionProof" xlink:title="&lt;TABLE&gt;">
<polygon fill="lightblue" stroke="transparent" points="708.5,-170.5 708.5,-207.5 896.5,-207.5 896.5,-170.5 708.5,-170.5"/>
<polygon fill="none" stroke="black" points="708.5,-170.5 708.5,-207.5 896.5,-207.5 896.5,-170.5 708.5,-170.5"/>
<text text-anchor="start" x="719.5" y="-186.3" font-family="Arial" font-weight="bold" font-size="14.00">MerkleTreeInclusionProof</text>
<polygon fill="none" stroke="black" points="707.5,-170 707.5,-209 897.5,-209 897.5,-170 707.5,-170"/>
</a>
</g>
</g>
<!-- ndMerkleTreeInclusionProof&#45;&gt;ndMerkleTree -->
<g id="edge10" class="edge">
<title>ndMerkleTreeInclusionProof&#45;&gt;ndMerkleTree</title>
<path fill="none" stroke="black" d="M820.61,-165.94C827.52,-157.32 835.53,-147.35 842.94,-138.1"/>
<polygon fill="black" stroke="black" points="849.27,-130.22 846.52,-140.84 846.14,-134.12 843.01,-138.02 843.01,-138.02 843.01,-138.02 846.14,-134.12 839.5,-135.21 849.27,-130.22 849.27,-130.22"/>
</g>
<!-- ndPartialMerkleTree -->
<g id="node14" class="node">
<title>ndPartialMerkleTree</title>
<g id="a_node14_15"><a xlink:href="https://github.com/Neptune-Crypto/twenty-first/blob/master/src/util_types/merkle_tree.rs#:~:text=struct%20PartialMerkleTree" xlink:title="&lt;TABLE&gt;">
<polygon fill="lightblue" stroke="transparent" points="971.5,-170.5 971.5,-207.5 1106.5,-207.5 1106.5,-170.5 971.5,-170.5"/>
<polygon fill="none" stroke="black" points="971.5,-170.5 971.5,-207.5 1106.5,-207.5 1106.5,-170.5 971.5,-170.5"/>
<text text-anchor="start" x="982.5" y="-186.3" font-family="Arial" font-weight="bold" font-size="14.00">PartialMerkleTree</text>
<polygon fill="none" stroke="black" points="970,-170 970,-209 1107,-209 1107,-170 970,-170"/>
</a>
</g>
</g>
<!-- ndMerkleTreeError -->
<g id="node15" class="node">
<title>ndMerkleTreeError</title>
<g id="a_node15_16"><a xlink:href="https://github.com/Neptune-Crypto/twenty-first/blob/master/src/util_types/merkle_tree.rs#:~:text=enum%20MerkleTreeError" xlink:title="&lt;TABLE&gt;">
<polygon fill="yellow" stroke="transparent" points="1884.5,-419.5 1884.5,-456.5 2011.5,-456.5 2011.5,-419.5 1884.5,-419.5"/>
<polygon fill="none" stroke="black" points="1884.5,-419.5 1884.5,-456.5 2011.5,-456.5 2011.5,-419.5 1884.5,-419.5"/>
<text text-anchor="start" x="1895.5" y="-435.3" font-family="Arial" font-weight="bold" font-size="14.00">MerkleTreeError</text>
<polygon fill="none" stroke="black" points="1883,-419 1883,-458 2012,-458 2012,-419 1883,-419"/>
</a>
</g>
</g>
<!-- ndNode -->
<g id="node16" class="node">
<title>ndNode</title>
<g id="a_node16_17"><a xlink:href="https://github.com/Neptune-Crypto/twenty-first/blob/master/src/util_types/tree_m_ary.rs#:~:text=struct%20Node" xlink:title="&lt;TABLE&gt;">
<polygon fill="lightblue" stroke="transparent" points="2047.5,-419.5 2047.5,-456.5 2103.5,-456.5 2103.5,-419.5 2047.5,-419.5"/>
<polygon fill="none" stroke="black" points="2047.5,-419.5 2047.5,-456.5 2103.5,-456.5 2103.5,-419.5 2047.5,-419.5"/>
<text text-anchor="start" x="2058.5" y="-435.3" font-family="Arial" font-weight="bold" font-size="14.00">Node</text>
<polygon fill="none" stroke="black" points="2046.5,-419 2046.5,-458 2104.5,-458 2104.5,-419 2046.5,-419"/>
</a>
</g>
</g>
<!-- ndMyVec -->
<g id="node18" class="node">
<title>ndMyVec</title>
<g id="a_node18_18"><a xlink:href="https://github.com/Neptune-Crypto/twenty-first/blob/master/src/mock/mmr/mock_mmr.rs#:~:text=struct%20MyVec" xlink:title="&lt;TABLE&gt;">
<polygon fill="lightblue" stroke="transparent" points="591.5,-87.5 591.5,-124.5 656.5,-124.5 656.5,-87.5 591.5,-87.5"/>
<polygon fill="none" stroke="black" points="591.5,-87.5 591.5,-124.5 656.5,-124.5 656.5,-87.5 591.5,-87.5"/>
<text text-anchor="start" x="602.5" y="-103.3" font-family="Arial" font-weight="bold" font-size="14.00">MyVec</text>
<polygon fill="none" stroke="black" points="590,-87 590,-126 657,-126 657,-87 590,-87"/>
</a>
</g>
</g>
<!-- ndMyVec&#45;&gt;ndMockMmr -->
<g id="edge11" class="edge">
<title>ndMyVec&#45;&gt;ndMockMmr</title>
<path fill="none" stroke="black" d="M623.5,-82.94C623.5,-75.63 623.5,-67.34 623.5,-59.35"/>
<polygon fill="black" stroke="black" points="623.5,-59.22 619.5,-53.22 623.5,-47.22 627.5,-53.22 623.5,-59.22"/>
</g>
<!-- ndCyclicGroupGenerator -->
<g id="node19" class="node">
<title>ndCyclicGroupGenerator</title>
<g id="a_node19_19"><a xlink:href="https://github.com/Neptune-Crypto/twenty-first/blob/master/src/math/traits.rs#:~:text=trait%20CyclicGroupGenerator" xlink:title="&lt;TABLE&gt;">
<polygon fill="lightgreen" stroke="transparent" points="1205.5,-419.5 1205.5,-456.5 1374.5,-456.5 1374.5,-419.5 1205.5,-419.5"/>
<polygon fill="none" stroke="black" points="1205.5,-419.5 1205.5,-456.5 1374.5,-456.5 1374.5,-419.5 1205.5,-419.5"/>
<text text-anchor="start" x="1216.5" y="-435.3" font-family="Arial" font-weight="bold" font-size="14.00">CyclicGroupGenerator</text>
<polygon fill="none" stroke="black" points="1204,-419 1204,-458 1375,-458 1375,-419 1204,-419"/>
</a>
</g>
</g>
<!-- ndBFieldElement -->
<g id="node31" class="node">
<title>ndBFieldElement</title>
<g id="a_node31_20"><a xlink:href="https://github.com/Neptune-Crypto/twenty-first/blob/master/src/math/b_field_element.rs#:~:text=struct%20BFieldElement" xlink:title="&lt;TABLE&gt;">
<polygon fill="lightblue" stroke="transparent" points="1064.5,-336.5 1064.5,-373.5 1181.5,-373.5 1181.5,-336.5 1064.5,-336.5"/>
<polygon fill="none" stroke="black" points="1064.5,-336.5 1064.5,-373.5 1181.5,-373.5 1181.5,-336.5 1064.5,-336.5"/>
<text text-anchor="start" x="1075.5" y="-352.3" font-family="Arial" font-weight="bold" font-size="14.00">BFieldElement</text>
<polygon fill="none" stroke="black" points="1063,-336 1063,-375 1182,-375 1182,-336 1063,-336"/>
</a>
</g>
</g>
<!-- ndCyclicGroupGenerator&#45;&gt;ndBFieldElement -->
<g id="edge12" class="edge">
<title>ndCyclicGroupGenerator&#45;&gt;ndBFieldElement</title>
<path fill="none" stroke="black" stroke-dasharray="5,2" d="M1242.98,-414.94C1222.89,-405.19 1199.22,-393.71 1178.2,-383.51"/>
<polygon fill="none" stroke="black" points="1179.58,-380.3 1169.06,-379.08 1176.53,-386.6 1179.58,-380.3"/>
</g>
<!-- ndXFieldElement -->
<g id="node32" class="node">
<title>ndXFieldElement</title>
<g id="a_node32_21"><a xlink:href="https://github.com/Neptune-Crypto/twenty-first/blob/master/src/math/x_field_element.rs#:~:text=struct%20XFieldElement" xlink:title="&lt;TABLE&gt;">
<polygon fill="lightblue" stroke="transparent" points="1180.5,-170.5 1180.5,-207.5 1296.5,-207.5 1296.5,-170.5 1180.5,-170.5"/>
<polygon fill="none" stroke="black" points="1180.5,-170.5 1180.5,-207.5 1296.5,-207.5 1296.5,-170.5 1180.5,-170.5"/>
<text text-anchor="start" x="1191.5" y="-186.3" font-family="Arial" font-weight="bold" font-size="14.00">XFieldElement</text>
<polygon fill="none" stroke="black" points="1179.5,-170 1179.5,-209 1297.5,-209 1297.5,-170 1179.5,-170"/>
</a>
</g>
</g>
<!-- ndCyclicGroupGenerator&#45;&gt;ndXFieldElement -->
<g id="edge13" class="edge">
<title>ndCyclicGroupGenerator&#45;&gt;ndXFieldElement</title>
<path fill="none" stroke="black" stroke-dasharray="5,2" d="M1289.1,-414.97C1287.94,-379.14 1283.49,-307.23 1266.5,-249 1263.89,-240.05 1260.03,-230.76 1256.02,-222.3"/>
<polygon fill="none" stroke="black" points="1259.06,-220.55 1251.47,-213.16 1252.79,-223.67 1259.06,-220.55"/>
</g>
<!-- ndInverse -->
<g id="node20" class="node">
<title>ndInverse</title>
<g id="a_node20_22"><a xlink:href="https://github.com/Neptune-Crypto/twenty-first/blob/master/src/math/traits.rs#:~:text=trait%20Inverse" xlink:title="&lt;TABLE&gt;">
<polygon fill="lightgreen" stroke="transparent" points="1409.5,-419.5 1409.5,-456.5 1479.5,-456.5 1479.5,-419.5 1409.5,-419.5"/>
<polygon fill="none" stroke="black" points="1409.5,-419.5 1409.5,-456.5 1479.5,-456.5 1479.5,-419.5 1409.5,-419.5"/>
<text text-anchor="start" x="1420.5" y="-435.3" font-family="Arial" font-weight="bold" font-size="14.00">Inverse</text>
<polygon fill="none" stroke="black" points="1408.5,-419 1408.5,-458 1480.5,-458 1480.5,-419 1408.5,-419"/>
</a>
</g>
</g>
<!-- ndInverse&#45;&gt;ndBFieldElement -->
<g id="edge14" class="edge">
<title>ndInverse&#45;&gt;ndBFieldElement</title>
<path fill="none" stroke="black" stroke-dasharray="5,2" d="M1400.47,-417.75C1397.79,-416.77 1395.12,-415.84 1392.5,-415 1328.88,-394.56 1254.53,-379.04 1199.98,-369.14"/>
<polygon fill="none" stroke="black" points="1200.49,-365.68 1190.03,-367.36 1199.26,-372.57 1200.49,-365.68"/>
</g>
<!-- ndInverse&#45;&gt;ndXFieldElement -->
<g id="edge15" class="edge">
<title>ndInverse&#45;&gt;ndXFieldElement</title>
<path fill="none" stroke="black" stroke-dasharray="5,2" d="M1425.49,-414.71C1388.31,-370.13 1305.98,-271.41 1264.07,-221.16"/>
<polygon fill="none" stroke="black" points="1266.56,-218.68 1257.46,-213.24 1261.18,-223.16 1266.56,-218.68"/>
</g>
<!-- ndPrimitiveRootOfUnity -->
<g id="node21" class="node">
<title>ndPrimitiveRootOfUnity</title>
<g id="a_node21_23"><a xlink:href="https://github.com/Neptune-Crypto/twenty-first/blob/master/src/math/traits.rs#:~:text=trait%20PrimitiveRootOfUnity" xlink:title="&lt;TABLE&gt;">
<polygon fill="lightgreen" stroke="transparent" points="1516.5,-419.5 1516.5,-456.5 1677.5,-456.5 1677.5,-419.5 1516.5,-419.5"/>
<polygon fill="none" stroke="black" points="1516.5,-419.5 1516.5,-456.5 1677.5,-456.5 1677.5,-419.5 1516.5,-419.5"/>
<text text-anchor="start" x="1527.5" y="-435.3" font-family="Arial" font-weight="bold" font-size="14.00">PrimitiveRootOfUnity</text>
<polygon fill="none" stroke="black" points="1515,-419 1515,-458 1678,-458 1678,-419 1515,-419"/>
</a>
</g>
</g>
<!-- ndPrimitiveRootOfUnity&#45;&gt;ndBFieldElement -->
<g id="edge16" class="edge">
<title>ndPrimitiveRootOfUnity&#45;&gt;ndBFieldElement</title>
<path fill="none" stroke="black" stroke-dasharray="5,2" d="M1506.98,-416.86C1503.78,-416.22 1500.62,-415.6 1497.5,-415 1395.15,-395.41 1276.14,-377.7 1200.12,-367.02"/>
<polygon fill="none" stroke="black" points="1200.53,-363.54 1190.14,-365.63 1199.56,-370.48 1200.53,-363.54"/>
</g>
<!-- ndPrimitiveRootOfUnity&#45;&gt;ndXFieldElement -->
<g id="edge17" class="edge">
<title>ndPrimitiveRootOfUnity&#45;&gt;ndXFieldElement</title>
<path fill="none" stroke="black" stroke-dasharray="5,2" d="M1563.78,-414.93C1498.35,-369.78 1351.49,-268.45 1279.65,-218.89"/>
<polygon fill="none" stroke="black" points="1281.49,-215.91 1271.27,-213.11 1277.52,-221.67 1281.49,-215.91"/>
</g>
<!-- ndModPowU64 -->
<g id="node22" class="node">
<title>ndModPowU64</title>
<g id="a_node22_24"><a xlink:href="https://github.com/Neptune-Crypto/twenty-first/blob/master/src/math/traits.rs#:~:text=trait%20ModPowU64" xlink:title="&lt;TABLE&gt;">
<polygon fill="lightgreen" stroke="transparent" points="798.5,-419.5 798.5,-456.5 902.5,-456.5 902.5,-419.5 798.5,-419.5"/>
<polygon fill="none" stroke="black" points="798.5,-419.5 798.5,-456.5 902.5,-456.5 902.5,-419.5 798.5,-419.5"/>
<text text-anchor="start" x="809.5" y="-435.3" font-family="Arial" font-weight="bold" font-size="14.00">ModPowU64</text>
<polygon fill="none" stroke="black" points="797.5,-419 797.5,-458 903.5,-458 903.5,-419 797.5,-419"/>
</a>
</g>
</g>
<!-- ndModPowU64&#45;&gt;ndBFieldElement -->
<g id="edge18" class="edge">
<title>ndModPowU64&#45;&gt;ndBFieldElement</title>
<path fill="none" stroke="black" stroke-dasharray="5,2" d="M911.55,-417.76C914.57,-416.82 917.57,-415.89 920.5,-415 961.37,-402.52 1007.09,-389.22 1044.69,-378.46"/>
<polygon fill="none" stroke="black" points="1045.91,-381.75 1054.56,-375.64 1043.98,-375.02 1045.91,-381.75"/>
</g>
<!-- ndModPowU64&#45;&gt;ndXFieldElement -->
<g id="edge19" class="edge">
<title>ndModPowU64&#45;&gt;ndXFieldElement</title>
<path fill="none" stroke="black" stroke-dasharray="5,2" d="M868.83,-414.68C905.44,-369.62 987.3,-271.61 1024.5,-249 1036.57,-241.66 1105.07,-223.53 1161.37,-209.38"/>
<polygon fill="none" stroke="black" points="1162.52,-212.7 1171.37,-206.87 1160.82,-205.91 1162.52,-212.7"/>
</g>
<!-- ndModPowU32 -->
<g id="node23" class="node">
<title>ndModPowU32</title>
<g id="a_node23_25"><a xlink:href="https://github.com/Neptune-Crypto/twenty-first/blob/master/src/math/traits.rs#:~:text=trait%20ModPowU32" xlink:title="&lt;TABLE&gt;">
<polygon fill="lightgreen" stroke="transparent" points="938.5,-419.5 938.5,-456.5 1042.5,-456.5 1042.5,-419.5 938.5,-419.5"/>
<polygon fill="none" stroke="black" points="938.5,-419.5 938.5,-456.5 1042.5,-456.5 1042.5,-419.5 938.5,-419.5"/>
<text text-anchor="start" x="949.5" y="-435.3" font-family="Arial" font-weight="bold" font-size="14.00">ModPowU32</text>
<polygon fill="none" stroke="black" points="937.5,-419 937.5,-458 1043.5,-458 1043.5,-419 937.5,-419"/>
</a>
</g>
</g>
<!-- ndModPowU32&#45;&gt;ndBFieldElement -->
<g id="edge20" class="edge">
<title>ndModPowU32&#45;&gt;ndBFieldElement</title>
<path fill="none" stroke="black" stroke-dasharray="5,2" d="M1027.27,-414.94C1042.59,-405.54 1060.54,-394.52 1076.7,-384.6"/>
<polygon fill="none" stroke="black" points="1078.78,-387.44 1085.47,-379.22 1075.12,-381.47 1078.78,-387.44"/>
</g>
<!-- ndModPowU32&#45;&gt;ndXFieldElement -->
<g id="edge21" class="edge">
<title>ndModPowU32&#45;&gt;ndXFieldElement</title>
<path fill="none" stroke="black" stroke-dasharray="5,2" d="M995.99,-414.7C1007.6,-367.2 1034.59,-260.99 1046.5,-249 1050.88,-244.59 1110.12,-226.89 1161.64,-212.11"/>
<polygon fill="none" stroke="black" points="1162.84,-215.41 1171.49,-209.29 1160.92,-208.68 1162.84,-215.41"/>
</g>
<!-- ndFiniteField -->
<g id="node24" class="node">
<title>ndFiniteField</title>
<g id="a_node24_26"><a xlink:href="https://github.com/Neptune-Crypto/twenty-first/blob/master/src/math/traits.rs#:~:text=trait%20FiniteField" xlink:title="&lt;TABLE&gt;">
<polygon fill="lightgreen" stroke="transparent" points="1078.5,-419.5 1078.5,-456.5 1168.5,-456.5 1168.5,-419.5 1078.5,-419.5"/>
<polygon fill="none" stroke="black" points="1078.5,-419.5 1078.5,-456.5 1168.5,-456.5 1168.5,-419.5 1078.5,-419.5"/>
<text text-anchor="start" x="1089.5" y="-435.3" font-family="Arial" font-weight="bold" font-size="14.00">FiniteField</text>
<polygon fill="none" stroke="black" points="1077.5,-419 1077.5,-458 1169.5,-458 1169.5,-419 1077.5,-419"/>
</a>
</g>
</g>
<!-- ndFiniteField&#45;&gt;ndBFieldElement -->
<g id="edge22" class="edge">
<title>ndFiniteField&#45;&gt;ndBFieldElement</title>
<path fill="none" stroke="black" stroke-dasharray="5,2" d="M1123.22,-414.94C1123.12,-407.02 1123.01,-397.95 1122.91,-389.36"/>
<polygon fill="none" stroke="black" points="1126.4,-389.18 1122.78,-379.22 1119.4,-389.27 1126.4,-389.18"/>
</g>
<!-- ndFiniteField&#45;&gt;ndXFieldElement -->
<g id="edge23" class="edge">
<title>ndFiniteField&#45;&gt;ndXFieldElement</title>
<path fill="none" stroke="black" stroke-dasharray="5,2" d="M1163.53,-414.81C1176.86,-405.37 1190.58,-393.25 1199.5,-379 1229.72,-330.74 1236.99,-263.22 1238.47,-223.46"/>
<polygon fill="none" stroke="black" points="1241.97,-223.35 1238.75,-213.26 1234.98,-223.16 1241.97,-223.35"/>
</g>
<!-- ndPolynomial -->
<g id="node26" class="node">
<title>ndPolynomial</title>
<g id="a_node26_27"><a xlink:href="https://github.com/Neptune-Crypto/twenty-first/blob/master/src/math/polynomial.rs#:~:text=struct%20Polynomial" xlink:title="&lt;TABLE&gt;">
<polygon fill="lightblue" stroke="transparent" points="1064.5,-253.5 1064.5,-290.5 1159.5,-290.5 1159.5,-253.5 1064.5,-253.5"/>
<polygon fill="none" stroke="black" points="1064.5,-253.5 1064.5,-290.5 1159.5,-290.5 1159.5,-253.5 1064.5,-253.5"/>
<text text-anchor="start" x="1075.5" y="-269.3" font-family="Arial" font-weight="bold" font-size="14.00">Polynomial</text>
<polygon fill="none" stroke="black" points="1063,-253 1063,-292 1160,-292 1160,-253 1063,-253"/>
</a>
</g>
</g>
<!-- ndPolynomial&#45;&gt;ndXFieldElement -->
<g id="edge24" class="edge">
<title>ndPolynomial&#45;&gt;ndXFieldElement</title>
<path fill="none" stroke="black" d="M1140.75,-248.94C1154.79,-239.54 1171.95,-228.52 1187.98,-218.6"/>
<polygon fill="black" stroke="black" points="1196.74,-213.22 1190.57,-222.29 1192.48,-215.84 1188.22,-218.46 1188.22,-218.46 1188.22,-218.46 1192.48,-215.84 1185.86,-214.62 1196.74,-213.22 1196.74,-213.22"/>
</g>
<!-- ndBFieldCodec -->
<g id="node27" class="node">
<title>ndBFieldCodec</title>
<g id="a_node27_28"><a xlink:href="https://github.com/Neptune-Crypto/twenty-first/blob/master/src/math/bfield_codec.rs#:~:text=trait%20BFieldCodec" xlink:title="&lt;TABLE&gt;">
<polygon fill="lightgreen" stroke="transparent" points="517.5,-336.5 517.5,-373.5 622.5,-373.5 622.5,-336.5 517.5,-336.5"/>
<polygon fill="none" stroke="black" points="517.5,-336.5 517.5,-373.5 622.5,-373.5 622.5,-336.5 517.5,-336.5"/>
<text text-anchor="start" x="528.5" y="-352.3" font-family="Arial" font-weight="bold" font-size="14.00">BFieldCodec</text>
<polygon fill="none" stroke="black" points="516,-336 516,-375 623,-375 623,-336 516,-336"/>
</a>
</g>
</g>
<!-- ndU32s -->
<g id="node34" class="node">
<title>ndU32s</title>
<g id="a_node34_29"><a xlink:href="https://github.com/Neptune-Crypto/twenty-first/blob/master/src/amount/u32s.rs#:~:text=struct%20U32s" xlink:title="&lt;TABLE&gt;">
<polygon fill="lightblue" stroke="transparent" points="542.5,-253.5 542.5,-290.5 597.5,-290.5 597.5,-253.5 542.5,-253.5"/>
<polygon fill="none" stroke="black" points="542.5,-253.5 542.5,-290.5 597.5,-290.5 597.5,-253.5 542.5,-253.5"/>
<text text-anchor="start" x="553.5" y="-269.3" font-family="Arial" font-weight="bold" font-size="14.00">U32s</text>
<polygon fill="none" stroke="black" points="541,-253 541,-292 598,-292 598,-253 541,-253"/>
</a>
</g>
</g>
<!-- ndBFieldCodec&#45;&gt;ndU32s -->
<g id="edge25" class="edge">
<title>ndBFieldCodec&#45;&gt;ndU32s</title>
<path fill="none" stroke="black" stroke-dasharray="5,2" d="M569.5,-331.94C569.5,-324.02 569.5,-314.95 569.5,-306.36"/>
<polygon fill="none" stroke="black" points="573,-306.22 569.5,-296.22 566,-306.22 573,-306.22"/>
</g>
<!-- ndBFieldCodecError -->
<g id="node28" class="node">
<title>ndBFieldCodecError</title>
<g id="a_node28_30"><a xlink:href="https://github.com/Neptune-Crypto/twenty-first/blob/master/src/math/bfield_codec.rs#:~:text=enum%20BFieldCodecError" xlink:title="&lt;TABLE&gt;">
<polygon fill="yellow" stroke="transparent" points="2139.5,-419.5 2139.5,-456.5 2277.5,-456.5 2277.5,-419.5 2139.5,-419.5"/>
<polygon fill="none" stroke="black" points="2139.5,-419.5 2139.5,-456.5 2277.5,-456.5 2277.5,-419.5 2139.5,-419.5"/>
<text text-anchor="start" x="2150.5" y="-435.3" font-family="Arial" font-weight="bold" font-size="14.00">BFieldCodecError</text>
<polygon fill="none" stroke="black" points="2138.5,-419 2138.5,-458 2278.5,-458 2278.5,-419 2138.5,-419"/>
</a>
</g>
</g>
<!-- ndCyclotomicRingElement -->
<g id="node29" class="node">
<title>ndCyclotomicRingElement</title>
<g id="a_node29_31"><a xlink:href="https://github.com/Neptune-Crypto/twenty-first/blob/master/src/math/lattice.rs#:~:text=struct%20CyclotomicRingElement" xlink:title="&lt;TABLE&gt;">
<polygon fill="lightblue" stroke="transparent" points="672.5,-253.5 672.5,-290.5 851.5,-290.5 851.5,-253.5 672.5,-253.5"/>
<polygon fill="none" stroke="black" points="672.5,-253.5 672.5,-290.5 851.5,-290.5 851.5,-253.5 672.5,-253.5"/>
<text text-anchor="start" x="683.5" y="-269.3" font-family="Arial" font-weight="bold" font-size="14.00">CyclotomicRingElement</text>
<polygon fill="none" stroke="black" points="671,-253 671,-292 852,-292 852,-253 671,-253"/>
</a>
</g>
</g>
<!-- ndModuleElement -->
<g id="node30" class="node">
<title>ndModuleElement</title>
<g id="a_node30_32"><a xlink:href="https://github.com/Neptune-Crypto/twenty-first/blob/master/src/math/lattice.rs#:~:text=struct%20ModuleElement" xlink:title="&lt;TABLE&gt;">
<polygon fill="lightblue" stroke="transparent" points="215.5,-170.5 215.5,-207.5 339.5,-207.5 339.5,-170.5 215.5,-170.5"/>
<polygon fill="none" stroke="black" points="215.5,-170.5 215.5,-207.5 339.5,-207.5 339.5,-170.5 215.5,-170.5"/>
<text text-anchor="start" x="226.5" y="-186.3" font-family="Arial" font-weight="bold" font-size="14.00">ModuleElement</text>
<polygon fill="none" stroke="black" points="214.5,-170 214.5,-209 340.5,-209 340.5,-170 214.5,-170"/>
</a>
</g>
</g>
<!-- ndCyclotomicRingElement&#45;&gt;ndModuleElement -->
<g id="edge26" class="edge">
<title>ndCyclotomicRingElement&#45;&gt;ndModuleElement</title>
<path fill="none" stroke="black" d="M662.97,-251.44C658.08,-250.58 653.24,-249.76 648.5,-249 524.04,-228.91 487.96,-237.88 360.69,-213.27"/>
<polygon fill="black" stroke="black" points="360.69,-213.27 354.03,-216.04 348.92,-210.95 355.58,-208.19 360.69,-213.27"/>
</g>
<!-- ndBFieldElement&#45;&gt;ndTip5 -->
<g id="edge27" class="edge">
<title>ndBFieldElement&#45;&gt;ndTip5</title>
<path fill="none" stroke="black" stroke-dasharray="5,2" d="M1054.82,-352.12C942.17,-347.16 721.91,-332.94 654.5,-296 630.7,-282.96 639.55,-261.58 615.5,-249 536.04,-207.43 305.49,-236.69 200.59,-212.98"/>
<polygon fill="black" stroke="black" points="200.35,-212.92 193.54,-215.29 188.74,-209.91 195.55,-207.54 200.35,-212.92"/>
</g>
<!-- ndBFieldElement&#45;&gt;ndPolynomial -->
<g id="edge28" class="edge">
<title>ndBFieldElement&#45;&gt;ndPolynomial</title>
<path fill="none" stroke="black" stroke-dasharray="5,2" d="M1119.44,-331.94C1118.36,-324.02 1117.13,-314.95 1115.96,-306.36"/>
<polygon fill="black" stroke="black" points="1114.59,-296.22 1120.39,-305.53 1115.26,-301.18 1115.93,-306.13 1115.93,-306.13 1115.93,-306.13 1115.26,-301.18 1111.47,-306.74 1114.59,-296.22 1114.59,-296.22"/>
</g>
<!-- ndBFieldElement&#45;&gt;ndCyclotomicRingElement -->
<g id="edge29" class="edge">
<title>ndBFieldElement&#45;&gt;ndCyclotomicRingElement</title>
<path fill="none" stroke="black" d="M1054.6,-339.26C1003.19,-327.73 931.48,-311.64 871.87,-298.26"/>
<polygon fill="black" stroke="black" points="871.82,-298.25 865.09,-300.84 860.11,-295.63 866.84,-293.04 871.82,-298.25"/>
</g>
<!-- ndBFieldElement&#45;&gt;ndXFieldElement -->
<g id="edge30" class="edge">
<title>ndBFieldElement&#45;&gt;ndXFieldElement</title>
<path fill="none" stroke="black" stroke-dasharray="5,2" d="M1137.79,-331.96C1147.28,-321.52 1159.1,-308.64 1168.5,-296 1185.49,-273.16 1201.47,-245.18 1214.11,-223.78"/>
<polygon fill="black" stroke="black" points="1214.25,-223.55 1213.9,-216.35 1220.41,-213.25 1220.77,-220.45 1214.25,-223.55"/>
</g>
<!-- ndDigest -->
<g id="node33" class="node">
<title>ndDigest</title>
<g id="a_node33_33"><a xlink:href="https://github.com/Neptune-Crypto/twenty-first/blob/master/src/math/digest.rs#:~:text=struct%20Digest" xlink:title="&lt;TABLE&gt;">
<polygon fill="lightblue" stroke="transparent" points="887.5,-253.5 887.5,-290.5 951.5,-290.5 951.5,-253.5 887.5,-253.5"/>
<polygon fill="none" stroke="black" points="887.5,-253.5 887.5,-290.5 951.5,-290.5 951.5,-253.5 887.5,-253.5"/>
<text text-anchor="start" x="898.5" y="-269.3" font-family="Arial" font-weight="bold" font-size="14.00">Digest</text>
<polygon fill="none" stroke="black" points="886.5,-253 886.5,-292 952.5,-292 952.5,-253 886.5,-253"/>
</a>
</g>
</g>
<!-- ndBFieldElement&#45;&gt;ndDigest -->
<g id="edge31" class="edge">
<title>ndBFieldElement&#45;&gt;ndDigest</title>
<path fill="none" stroke="black" d="M1065.95,-331.94C1036.57,-320.21 1000.88,-305.97 972.09,-294.48"/>
<polygon fill="black" stroke="black" points="971.77,-294.35 964.71,-295.85 960.62,-289.91 967.68,-288.42 971.77,-294.35"/>
</g>
<!-- ndBFieldElement&#45;&gt;ndU32s -->
<g id="edge32" class="edge">
<title>ndBFieldElement&#45;&gt;ndU32s</title>
<path fill="none" stroke="black" d="M1054.7,-353C957.1,-349.41 772.05,-337.25 620.5,-296 618.86,-295.55 617.21,-295.06 615.55,-294.54"/>
<polygon fill="black" stroke="black" points="606.07,-291.18 617,-290.28 610.79,-292.85 615.5,-294.52 615.5,-294.52 615.5,-294.52 610.79,-292.85 614,-298.76 606.07,-291.18 606.07,-291.18"/>
</g>
<!-- ndXFieldElement&#45;&gt;ndPolynomial -->
<g id="edge33" class="edge">
<title>ndXFieldElement&#45;&gt;ndPolynomial</title>
<path fill="none" stroke="black" stroke-dasharray="5,2" d="M1209.01,-213.22C1194.94,-222.64 1177.77,-233.66 1161.75,-243.57"/>
<polygon fill="black" stroke="black" points="1153,-248.94 1159.17,-239.87 1157.26,-246.32 1161.52,-243.71 1161.52,-243.71 1161.52,-243.71 1157.26,-246.32 1163.88,-247.54 1153,-248.94 1153,-248.94"/>
</g>
<!-- ndXFieldElement&#45;&gt;ndBFieldElement -->
<g id="edge34" class="edge">
<title>ndXFieldElement&#45;&gt;ndBFieldElement</title>
<path fill="none" stroke="black" stroke-dasharray="5,2" d="M1234.18,-213.25C1225.01,-235.28 1206.45,-269.18 1186.5,-296 1179.16,-305.88 1170.34,-315.9 1161.56,-324.79"/>
<polygon fill="black" stroke="black" points="1154.24,-331.96 1158.23,-321.75 1157.81,-328.47 1161.38,-324.97 1161.38,-324.97 1161.38,-324.97 1157.81,-328.47 1164.53,-328.18 1154.24,-331.96 1154.24,-331.96"/>
</g>
<!-- ndDigest&#45;&gt;ndMmrAccumulator -->
<g id="edge35" class="edge">
<title>ndDigest&#45;&gt;ndMmrAccumulator</title>
<path fill="none" stroke="black" stroke-dasharray="5,2" d="M878.41,-251.75C875.44,-250.71 872.45,-249.78 869.5,-249 786.63,-227.12 543.21,-276.37 485.5,-213 468.46,-194.29 470.11,-165.04 475.23,-142.08"/>
<polygon fill="black" stroke="black" points="475.24,-142.03 472.87,-135.22 478.24,-130.41 480.62,-137.22 475.24,-142.03"/>
</g>
<!-- ndDigest&#45;&gt;ndMmrMembershipProof -->
<g id="edge36" class="edge">
<title>ndDigest&#45;&gt;ndMmrMembershipProof</title>
<path fill="none" stroke="black" stroke-dasharray="5,2" d="M878.31,-252.11C875.36,-250.98 872.4,-249.93 869.5,-249 795.86,-225.36 772.13,-229.21 693.28,-213.51"/>
<polygon fill="black" stroke="black" points="692.99,-213.45 686.31,-216.17 681.23,-211.05 687.91,-208.33 692.99,-213.45"/>
</g>
<!-- ndDigest&#45;&gt;ndMerkleTree -->
<g id="edge37" class="edge">
<title>ndDigest&#45;&gt;ndMerkleTree</title>
<path fill="none" stroke="black" d="M922.37,-248.87C924.26,-226.93 924.76,-193.09 914.5,-166 910.92,-156.56 905.21,-147.47 898.97,-139.39"/>
<polygon fill="black" stroke="black" points="898.9,-139.3 891.98,-137.25 891.22,-130.08 898.13,-132.13 898.9,-139.3"/>
</g>
<!-- ndDigest&#45;&gt;ndMerkleTreeInclusionProof -->
<g id="edge38" class="edge">
<title>ndDigest&#45;&gt;ndMerkleTreeInclusionProof</title>
<path fill="none" stroke="black" stroke-dasharray="5,2" d="M886.91,-248.94C874.09,-240.06 859.18,-229.74 845.49,-220.27"/>
<polygon fill="black" stroke="black" points="845.19,-220.05 837.98,-219.93 835.32,-213.22 842.53,-213.35 845.19,-220.05"/>
</g>
<!-- ndDigest&#45;&gt;ndPartialMerkleTree -->
<g id="edge39" class="edge">
<title>ndDigest&#45;&gt;ndPartialMerkleTree</title>
<path fill="none" stroke="black" d="M952.65,-248.94C966.33,-239.62 982.34,-228.72 996.81,-218.88"/>
<polygon fill="black" stroke="black" points="1005.12,-213.22 999.38,-222.57 1000.98,-216.04 996.85,-218.85 996.85,-218.85 996.85,-218.85 1000.98,-216.04 994.32,-215.13 1005.12,-213.22 1005.12,-213.22"/>
</g>
<!-- ndDigest&#45;&gt;ndMockMmr -->
<g id="edge40" class="edge">
<title>ndDigest&#45;&gt;ndMockMmr</title>
<path fill="none" stroke="black" stroke-dasharray="5,2" d="M960.69,-253.86C965.31,-252.12 969.98,-250.46 974.5,-249 1039.75,-227.96 1082.05,-266.84 1124.5,-213 1137.43,-196.6 1135.97,-183.46 1124.5,-166 1076.34,-92.72 813.36,-49.23 688.88,-32.48"/>
<polygon fill="black" stroke="black" points="688.81,-32.47 682.34,-35.64 676.92,-30.89 683.39,-27.71 688.81,-32.47"/>
</g>
<!-- ndDigest&#45;&gt;ndTip5 -->
<g id="edge41" class="edge">
<title>ndDigest&#45;&gt;ndTip5</title>
<path fill="none" stroke="black" stroke-dasharray="5,2" d="M878.45,-251.62C875.46,-250.61 872.46,-249.72 869.5,-249 582.11,-179.22 488.05,-289.61 198.64,-212.71"/>
<polygon fill="black" stroke="black" points="188.71,-210.01 199.54,-208.29 193.53,-211.32 198.36,-212.63 198.36,-212.63 198.36,-212.63 193.53,-211.32 197.18,-216.97 188.71,-210.01 188.71,-210.01"/>
</g>
<!-- ndDigest&#45;&gt;ndXFieldElement -->
<g id="edge42" class="edge">
<title>ndDigest&#45;&gt;ndXFieldElement</title>
<path fill="none" stroke="black" stroke-dasharray="5,2" d="M960.63,-253.67C965.27,-251.96 969.95,-250.36 974.5,-249 1053.9,-225.2 1076.84,-232.11 1157.5,-213 1158.78,-212.7 1160.07,-212.39 1161.36,-212.07"/>
<polygon fill="black" stroke="black" points="1171.42,-209.56 1162.81,-216.35 1166.57,-210.77 1161.72,-211.98 1161.72,-211.98 1161.72,-211.98 1166.57,-210.77 1160.63,-207.62 1171.42,-209.56 1171.42,-209.56"/>
</g>
</g>
</svg>
