<?xml version="1.0" encoding="UTF-8" standalone="no"?>
<!DOCTYPE svg PUBLIC "-//W3C//DTD SVG 1.1//EN"
 "http://www.w3.org/Graphics/SVG/1.1/DTD/svg11.dtd">
<!-- Generated by graphviz version 2.43.0 (0)
 -->
<!-- Title: ml Pages: 1 -->
<svg width="1660pt" height="636pt"
 viewBox="0.00 0.00 1659.52 636.00" xmlns="http://www.w3.org/2000/svg" xmlns:xlink="http://www.w3.org/1999/xlink">
<g id="graph0" class="graph" transform="scale(1 1) rotate(0) translate(4 632)">
<title>ml</title>
<polygon fill="white" stroke="transparent" points="-4,4 -4,-632 1655.52,-632 1655.52,4 -4,4"/>
<!-- ndParseBFieldElementError -->
<g id="node1" class="node">
<title>ndParseBFieldElementError</title>
<g id="a_node1_0"><a xlink:href="https://github.com/Neptune-Crypto/twenty-first/blob/master/src/error.rs#:~:text=enum%20ParseBFieldElementError" xlink:title="&lt;TABLE&gt;">
<polygon fill="yellow" stroke="transparent" points="400.02,-585.5 400.02,-622.5 587.02,-622.5 587.02,-585.5 400.02,-585.5"/>
<polygon fill="none" stroke="black" points="400.02,-585.5 400.02,-622.5 587.02,-622.5 587.02,-585.5 400.02,-585.5"/>
<text text-anchor="start" x="411.02" y="-601.3" font-family="Arial" font-weight="bold" font-size="14.00">ParseBFieldElementError</text>
<polygon fill="none" stroke="black" points="398.52,-585 398.52,-624 587.52,-624 587.52,-585 398.52,-585"/>
</a>
</g>
</g>
<!-- ndTryFromDigestError -->
<g id="node4" class="node">
<title>ndTryFromDigestError</title>
<g id="a_node4_1"><a xlink:href="https://github.com/Neptune-Crypto/twenty-first/blob/master/src/error.rs#:~:text=enum%20TryFromDigestError" xlink:title="&lt;TABLE&gt;">
<polygon fill="yellow" stroke="transparent" points="417.02,-502.5 417.02,-539.5 569.02,-539.5 569.02,-502.5 417.02,-502.5"/>
<polygon fill="none" stroke="black" points="417.02,-502.5 417.02,-539.5 569.02,-539.5 569.02,-502.5 417.02,-502.5"/>
<text text-anchor="start" x="428.02" y="-518.3" font-family="Arial" font-weight="bold" font-size="14.00">TryFromDigestError</text>
<polygon fill="none" stroke="black" points="416.02,-502 416.02,-541 570.02,-541 570.02,-502 416.02,-502"/>
</a>
</g>
</g>
<!-- ndParseBFieldElementError&#45;&gt;ndTryFromDigestError -->
<g id="edge1" class="edge">
<title>ndParseBFieldElementError&#45;&gt;ndTryFromDigestError</title>
<path fill="none" stroke="black" d="M493.02,-580.94C493.02,-573.63 493.02,-565.34 493.02,-557.35"/>
<polygon fill="black" stroke="black" points="493.02,-557.22 489.02,-551.22 493.02,-545.22 497.02,-551.22 493.02,-557.22"/>
</g>
<!-- ndTryFromU32sError -->
<g id="node2" class="node">
<title>ndTryFromU32sError</title>
<g id="a_node2_2"><a xlink:href="https://github.com/Neptune-Crypto/twenty-first/blob/master/src/error.rs#:~:text=enum%20TryFromU32sError" xlink:title="&lt;TABLE&gt;">
<polygon fill="yellow" stroke="transparent" points="623.02,-585.5 623.02,-622.5 766.02,-622.5 766.02,-585.5 623.02,-585.5"/>
<polygon fill="none" stroke="black" points="623.02,-585.5 623.02,-622.5 766.02,-622.5 766.02,-585.5 623.02,-585.5"/>
<text text-anchor="start" x="634.02" y="-601.3" font-family="Arial" font-weight="bold" font-size="14.00">TryFromU32sError</text>
<polygon fill="none" stroke="black" points="621.52,-585 621.52,-624 766.52,-624 766.52,-585 621.52,-585"/>
</a>
</g>
</g>
<!-- ndTryFromXFieldElementError -->
<g id="node3" class="node">
<title>ndTryFromXFieldElementError</title>
<g id="a_node3_3"><a xlink:href="https://github.com/Neptune-Crypto/twenty-first/blob/master/src/error.rs#:~:text=enum%20TryFromXFieldElementError" xlink:title="&lt;TABLE&gt;">
<polygon fill="yellow" stroke="transparent" points="802.02,-585.5 802.02,-622.5 1006.02,-622.5 1006.02,-585.5 802.02,-585.5"/>
<polygon fill="none" stroke="black" points="802.02,-585.5 802.02,-622.5 1006.02,-622.5 1006.02,-585.5 802.02,-585.5"/>
<text text-anchor="start" x="813.02" y="-601.3" font-family="Arial" font-weight="bold" font-size="14.00">TryFromXFieldElementError</text>
<polygon fill="none" stroke="black" points="801.02,-585 801.02,-624 1007.02,-624 1007.02,-585 801.02,-585"/>
</a>
</g>
</g>
<!-- ndTryFromHexDigestError -->
<g id="node5" class="node">
<title>ndTryFromHexDigestError</title>
<g id="a_node5_4"><a xlink:href="https://github.com/Neptune-Crypto/twenty-first/blob/master/src/error.rs#:~:text=enum%20TryFromHexDigestError" xlink:title="&lt;TABLE&gt;">
<polygon fill="yellow" stroke="transparent" points="405.02,-419.5 405.02,-456.5 581.02,-456.5 581.02,-419.5 405.02,-419.5"/>
<polygon fill="none" stroke="black" points="405.02,-419.5 405.02,-456.5 581.02,-456.5 581.02,-419.5 405.02,-419.5"/>
<text text-anchor="start" x="416.02" y="-435.3" font-family="Arial" font-weight="bold" font-size="14.00">TryFromHexDigestError</text>
<polygon fill="none" stroke="black" points="404.02,-419 404.02,-458 582.02,-458 582.02,-419 404.02,-419"/>
</a>
</g>
</g>
<!-- ndTryFromDigestError&#45;&gt;ndTryFromHexDigestError -->
<g id="edge2" class="edge">
<title>ndTryFromDigestError&#45;&gt;ndTryFromHexDigestError</title>
<path fill="none" stroke="black" d="M493.02,-497.94C493.02,-490.63 493.02,-482.34 493.02,-474.35"/>
<polygon fill="black" stroke="black" points="493.02,-474.22 489.02,-468.22 493.02,-462.22 497.02,-468.22 493.02,-474.22"/>
</g>
<!-- ndDigest -->
<g id="node35" class="node">
<title>ndDigest</title>
<g id="a_node35_5"><a xlink:href="https://github.com/Neptune-Crypto/twenty-first/blob/master/src/math/digest.rs#:~:text=struct%20Digest" xlink:title="&lt;TABLE&gt;">
<polygon fill="lightblue" stroke="transparent" points="461.02,-336.5 461.02,-373.5 525.02,-373.5 525.02,-336.5 461.02,-336.5"/>
<polygon fill="none" stroke="black" points="461.02,-336.5 461.02,-373.5 525.02,-373.5 525.02,-336.5 461.02,-336.5"/>
<text text-anchor="start" x="472.02" y="-352.3" font-family="Arial" font-weight="bold" font-size="14.00">Digest</text>
<polygon fill="none" stroke="black" points="460.02,-336 460.02,-375 526.02,-375 526.02,-336 460.02,-336"/>
</a>
</g>
</g>
<!-- ndTryFromHexDigestError&#45;&gt;ndDigest -->
<g id="edge3" class="edge">
<title>ndTryFromHexDigestError&#45;&gt;ndDigest</title>
<path fill="none" stroke="black" d="M493.02,-414.94C493.02,-407.02 493.02,-397.95 493.02,-389.36"/>
<polygon fill="black" stroke="black" points="493.02,-379.22 497.52,-389.22 493.02,-384.22 493.02,-389.22 493.02,-389.22 493.02,-389.22 493.02,-384.22 488.52,-389.22 493.02,-379.22 493.02,-379.22"/>
</g>
<!-- ndDomain -->
<g id="node6" class="node">
<title>ndDomain</title>
<g id="a_node6_6"><a xlink:href="https://github.com/Neptune-Crypto/twenty-first/blob/master/src/util_types/algebraic_hasher.rs#:~:text=enum%20Domain" xlink:title="&lt;TABLE&gt;">
<polygon fill="yellow" stroke="transparent" points="830.02,-170.5 830.02,-207.5 903.02,-207.5 903.02,-170.5 830.02,-170.5"/>
<polygon fill="none" stroke="black" points="830.02,-170.5 830.02,-207.5 903.02,-207.5 903.02,-170.5 830.02,-170.5"/>
<text text-anchor="start" x="841.02" y="-186.3" font-family="Arial" font-weight="bold" font-size="14.00">Domain</text>
<polygon fill="none" stroke="black" points="828.52,-170 828.52,-209 903.52,-209 903.52,-170 828.52,-170"/>
</a>
</g>
</g>
<!-- ndTip5 -->
<g id="node26" class="node">
<title>ndTip5</title>
<g id="a_node26_7"><a xlink:href="https://github.com/Neptune-Crypto/twenty-first/blob/master/src/math/tip5.rs#:~:text=struct%20Tip5" xlink:title="&lt;TABLE&gt;">
<polygon fill="lightblue" stroke="transparent" points="841.02,-87.5 841.02,-124.5 891.02,-124.5 891.02,-87.5 841.02,-87.5"/>
<polygon fill="none" stroke="black" points="841.02,-87.5 841.02,-124.5 891.02,-124.5 891.02,-87.5 841.02,-87.5"/>
<text text-anchor="start" x="852.02" y="-103.3" font-family="Arial" font-weight="bold" font-size="14.00">Tip5</text>
<polygon fill="none" stroke="black" points="840.02,-87 840.02,-126 892.02,-126 892.02,-87 840.02,-87"/>
</a>
</g>
</g>
<!-- ndDomain&#45;&gt;ndTip5 -->
<g id="edge4" class="edge">
<title>ndDomain&#45;&gt;ndTip5</title>
<path fill="none" stroke="black" stroke-dasharray="5,2" d="M866.02,-165.94C866.02,-158.02 866.02,-148.95 866.02,-140.36"/>
<polygon fill="black" stroke="black" points="866.02,-130.22 870.52,-140.22 866.02,-135.22 866.02,-140.22 866.02,-140.22 866.02,-140.22 866.02,-135.22 861.52,-140.22 866.02,-130.22 866.02,-130.22"/>
</g>
<!-- ndSponge -->
<g id="node7" class="node">
<title>ndSponge</title>
<g id="a_node7_8"><a xlink:href="https://github.com/Neptune-Crypto/twenty-first/blob/master/src/util_types/algebraic_hasher.rs#:~:text=trait%20Sponge" xlink:title="&lt;TABLE&gt;">
<polygon fill="lightgreen" stroke="transparent" points="939.02,-170.5 939.02,-207.5 1011.02,-207.5 1011.02,-170.5 939.02,-170.5"/>
<polygon fill="none" stroke="black" points="939.02,-170.5 939.02,-207.5 1011.02,-207.5 1011.02,-170.5 939.02,-170.5"/>
<text text-anchor="start" x="950.02" y="-186.3" font-family="Arial" font-weight="bold" font-size="14.00">Sponge</text>
<polygon fill="none" stroke="black" points="938.02,-170 938.02,-209 1012.02,-209 1012.02,-170 938.02,-170"/>
</a>
</g>
</g>
<!-- ndSponge&#45;&gt;ndTip5 -->
<g id="edge5" class="edge">
<title>ndSponge&#45;&gt;ndTip5</title>
<path fill="none" stroke="black" stroke-dasharray="5,2" d="M944.66,-165.94C932.36,-156.8 918,-146.13 904.95,-136.43"/>
<polygon fill="none" stroke="black" points="906.71,-133.38 896.6,-130.22 902.53,-139 906.71,-133.38"/>
</g>
<!-- ndAlgebraicHasher -->
<g id="node8" class="node">
<title>ndAlgebraicHasher</title>
<g id="a_node8_9"><a xlink:href="https://github.com/Neptune-Crypto/twenty-first/blob/master/src/util_types/algebraic_hasher.rs#:~:text=trait%20AlgebraicHasher" xlink:title="&lt;TABLE&gt;">
<polygon fill="lightgreen" stroke="transparent" points="625.02,-170.5 625.02,-207.5 755.02,-207.5 755.02,-170.5 625.02,-170.5"/>
<polygon fill="none" stroke="black" points="625.02,-170.5 625.02,-207.5 755.02,-207.5 755.02,-170.5 625.02,-170.5"/>
<text text-anchor="start" x="636.02" y="-186.3" font-family="Arial" font-weight="bold" font-size="14.00">AlgebraicHasher</text>
<polygon fill="none" stroke="black" points="624.02,-170 624.02,-209 756.02,-209 756.02,-170 624.02,-170"/>
</a>
</g>
</g>
<!-- ndAlgebraicHasher&#45;&gt;ndTip5 -->
<g id="edge6" class="edge">
<title>ndAlgebraicHasher&#45;&gt;ndTip5</title>
<path fill="none" stroke="black" stroke-dasharray="5,2" d="M739.04,-165.94C765.29,-153.86 797.33,-139.11 822.66,-127.45"/>
<polygon fill="none" stroke="black" points="824.39,-130.51 832.01,-123.15 821.47,-124.15 824.39,-130.51"/>
</g>
<!-- ndMerkleTreeMaker -->
<g id="node9" class="node">
<title>ndMerkleTreeMaker</title>
<g id="a_node9_10"><a xlink:href="https://github.com/Neptune-Crypto/twenty-first/blob/master/src/util_types/merkle_tree_maker.rs#:~:text=trait%20MerkleTreeMaker" xlink:title="&lt;TABLE&gt;">
<polygon fill="lightgreen" stroke="transparent" points="1042.02,-585.5 1042.02,-622.5 1176.02,-622.5 1176.02,-585.5 1042.02,-585.5"/>
<polygon fill="none" stroke="black" points="1042.02,-585.5 1042.02,-622.5 1176.02,-622.5 1176.02,-585.5 1042.02,-585.5"/>
<text text-anchor="start" x="1053.02" y="-601.3" font-family="Arial" font-weight="bold" font-size="14.00">MerkleTreeMaker</text>
<polygon fill="none" stroke="black" points="1041.02,-585 1041.02,-624 1177.02,-624 1177.02,-585 1041.02,-585"/>
</a>
</g>
</g>
<!-- ndMmr -->
<g id="node10" class="node">
<title>ndMmr</title>
<g id="a_node10_11"><a xlink:href="https://github.com/Neptune-Crypto/twenty-first/blob/master/src/util_types/mmr/mmr_trait.rs#:~:text=trait%20Mmr" xlink:title="&lt;TABLE&gt;">
<polygon fill="lightgreen" stroke="transparent" points="702.02,-253.5 702.02,-290.5 755.02,-290.5 755.02,-253.5 702.02,-253.5"/>
<polygon fill="none" stroke="black" points="702.02,-253.5 702.02,-290.5 755.02,-290.5 755.02,-253.5 702.02,-253.5"/>
<text text-anchor="start" x="713.02" y="-269.3" font-family="Arial" font-weight="bold" font-size="14.00">Mmr</text>
<polygon fill="none" stroke="black" points="700.52,-253 700.52,-292 755.52,-292 755.52,-253 700.52,-253"/>
</a>
</g>
</g>
<!-- ndMmrAccumulator -->
<g id="node11" class="node">
<title>ndMmrAccumulator</title>
<g id="a_node11_12"><a xlink:href="https://github.com/Neptune-Crypto/twenty-first/blob/master/src/util_types/mmr/mmr_accumulator.rs#:~:text=struct%20MmrAccumulator" xlink:title="&lt;TABLE&gt;">
<polygon fill="lightblue" stroke="transparent" points="411.02,-170.5 411.02,-207.5 547.02,-207.5 547.02,-170.5 411.02,-170.5"/>
<polygon fill="none" stroke="black" points="411.02,-170.5 411.02,-207.5 547.02,-207.5 547.02,-170.5 411.02,-170.5"/>
<text text-anchor="start" x="422.02" y="-186.3" font-family="Arial" font-weight="bold" font-size="14.00">MmrAccumulator</text>
<polygon fill="none" stroke="black" points="410.02,-170 410.02,-209 548.02,-209 548.02,-170 410.02,-170"/>
</a>
</g>
</g>
<!-- ndMmr&#45;&gt;ndMmrAccumulator -->
<g id="edge7" class="edge">
<title>ndMmr&#45;&gt;ndMmrAccumulator</title>
<path fill="none" stroke="black" stroke-dasharray="5,2" d="M692.43,-252.96C689.28,-251.55 686.11,-250.2 683.02,-249 645.36,-234.33 602.52,-221.49 565.85,-211.61"/>
<polygon fill="none" stroke="black" points="566.74,-208.22 556.17,-209.03 564.93,-214.99 566.74,-208.22"/>
</g>
<!-- ndMockMmr -->
<g id="node18" class="node">
<title>ndMockMmr</title>
<g id="a_node18_13"><a xlink:href="https://github.com/Neptune-Crypto/twenty-first/blob/master/src/mock/mmr/mock_mmr.rs#:~:text=struct%20MockMmr" xlink:title="&lt;TABLE&gt;">
<polygon fill="lightblue" stroke="transparent" points="328.02,-87.5 328.02,-124.5 416.02,-124.5 416.02,-87.5 328.02,-87.5"/>
<polygon fill="none" stroke="black" points="328.02,-87.5 328.02,-124.5 416.02,-124.5 416.02,-87.5 328.02,-87.5"/>
<text text-anchor="start" x="339.02" y="-103.3" font-family="Arial" font-weight="bold" font-size="14.00">MockMmr</text>
<polygon fill="none" stroke="black" points="327.02,-87 327.02,-126 417.02,-126 417.02,-87 327.02,-87"/>
</a>
</g>
</g>
<!-- ndMmr&#45;&gt;ndMockMmr -->
<g id="edge8" class="edge">
<title>ndMmr&#45;&gt;ndMockMmr</title>
<path fill="none" stroke="black" stroke-dasharray="5,2" d="M692.19,-253.5C689.09,-251.97 686,-250.45 683.02,-249 649.41,-232.64 636.95,-235.38 607.02,-213 584.58,-196.23 588.63,-181.07 565.02,-166 525.56,-140.83 474.69,-125.99 435.08,-117.56"/>
<polygon fill="none" stroke="black" points="435.77,-114.13 425.27,-115.56 434.36,-120.99 435.77,-114.13"/>
</g>
<!-- ndMmrAccumulator&#45;&gt;ndMockMmr -->
<g id="edge9" class="edge">
<title>ndMmrAccumulator&#45;&gt;ndMockMmr</title>
<path fill="none" stroke="black" d="M449.21,-165.94C437.14,-156.8 423.05,-146.13 410.24,-136.43"/>
<polygon fill="black" stroke="black" points="402.04,-130.22 412.72,-132.67 406.02,-133.24 410.01,-136.26 410.01,-136.26 410.01,-136.26 406.02,-133.24 407.29,-139.85 402.04,-130.22 402.04,-130.22"/>
</g>
<!-- ndMmrMembershipProof -->
<g id="node12" class="node">
<title>ndMmrMembershipProof</title>
<g id="a_node12_14"><a xlink:href="https://github.com/Neptune-Crypto/twenty-first/blob/master/src/util_types/mmr/mmr_membership_proof.rs#:~:text=struct%20MmrMembershipProof" xlink:title="&lt;TABLE&gt;">
<polygon fill="lightblue" stroke="transparent" points="288.02,-253.5 288.02,-290.5 457.02,-290.5 457.02,-253.5 288.02,-253.5"/>
<polygon fill="none" stroke="black" points="288.02,-253.5 288.02,-290.5 457.02,-290.5 457.02,-253.5 288.02,-253.5"/>
<text text-anchor="start" x="299.02" y="-269.3" font-family="Arial" font-weight="bold" font-size="14.00">MmrMembershipProof</text>
<polygon fill="none" stroke="black" points="286.52,-253 286.52,-292 457.52,-292 457.52,-253 286.52,-253"/>
</a>
</g>
</g>
<!-- ndMmrMembershipProof&#45;&gt;ndMmrAccumulator -->
<g id="edge10" class="edge">
<title>ndMmrMembershipProof&#45;&gt;ndMmrAccumulator</title>
<path fill="none" stroke="black" d="M401.82,-248.94C413.9,-239.8 427.99,-229.13 440.8,-219.43"/>
<polygon fill="black" stroke="black" points="449,-213.22 443.74,-222.85 445.02,-216.24 441.03,-219.26 441.03,-219.26 441.03,-219.26 445.02,-216.24 438.31,-215.67 449,-213.22 449,-213.22"/>
</g>
<!-- ndMmrMembershipProof&#45;&gt;ndMockMmr -->
<g id="edge11" class="edge">
<title>ndMmrMembershipProof&#45;&gt;ndMockMmr</title>
<path fill="none" stroke="black" d="M372.02,-248.7C372.02,-220.55 372.02,-172.47 372.02,-140.34"/>
<polygon fill="black" stroke="black" points="372.02,-130.11 376.52,-140.11 372.02,-135.11 372.02,-140.11 372.02,-140.11 372.02,-140.11 372.02,-135.11 367.52,-140.11 372.02,-130.11 372.02,-130.11"/>
</g>
<!-- ndMerkleTree -->
<g id="node13" class="node">
<title>ndMerkleTree</title>
<g id="a_node13_15"><a xlink:href="https://github.com/Neptune-Crypto/twenty-first/blob/master/src/util_types/merkle_tree.rs#:~:text=struct%20MerkleTree" xlink:title="&lt;TABLE&gt;">
<polygon fill="lightblue" stroke="transparent" points="127.02,-170.5 127.02,-207.5 221.02,-207.5 221.02,-170.5 127.02,-170.5"/>
<polygon fill="none" stroke="black" points="127.02,-170.5 127.02,-207.5 221.02,-207.5 221.02,-170.5 127.02,-170.5"/>
<text text-anchor="start" x="138.02" y="-186.3" font-family="Arial" font-weight="bold" font-size="14.00">MerkleTree</text>
<polygon fill="none" stroke="black" points="126.02,-170 126.02,-209 222.02,-209 222.02,-170 126.02,-170"/>
</a>
</g>
</g>
<!-- ndMerkleTreeInclusionProof -->
<g id="node14" class="node">
<title>ndMerkleTreeInclusionProof</title>
<g id="a_node14_16"><a xlink:href="https://github.com/Neptune-Crypto/twenty-first/blob/master/src/util_types/merkle_tree.rs#:~:text=struct%20MerkleTreeInclusionProof" xlink:title="&lt;TABLE&gt;">
<polygon fill="lightblue" stroke="transparent" points="63.02,-253.5 63.02,-290.5 251.02,-290.5 251.02,-253.5 63.02,-253.5"/>
<polygon fill="none" stroke="black" points="63.02,-253.5 63.02,-290.5 251.02,-290.5 251.02,-253.5 63.02,-253.5"/>
<text text-anchor="start" x="74.02" y="-269.3" font-family="Arial" font-weight="bold" font-size="14.00">MerkleTreeInclusionProof</text>
<polygon fill="none" stroke="black" points="62.02,-253 62.02,-292 252.02,-292 252.02,-253 62.02,-253"/>
</a>
</g>
</g>
<!-- ndMerkleTreeInclusionProof&#45;&gt;ndMerkleTree -->
<g id="edge12" class="edge">
<title>ndMerkleTreeInclusionProof&#45;&gt;ndMerkleTree</title>
<path fill="none" stroke="black" d="M161.75,-248.94C163.43,-240.93 165.36,-231.75 167.18,-223.07"/>
<polygon fill="black" stroke="black" points="169.25,-213.22 171.6,-223.93 168.22,-218.12 167.2,-223.01 167.2,-223.01 167.2,-223.01 168.22,-218.12 162.79,-222.09 169.25,-213.22 169.25,-213.22"/>
</g>
<!-- ndPartialMerkleTree -->
<g id="node15" class="node">
<title>ndPartialMerkleTree</title>
<g id="a_node15_17"><a xlink:href="https://github.com/Neptune-Crypto/twenty-first/blob/master/src/util_types/merkle_tree.rs#:~:text=struct%20PartialMerkleTree" xlink:title="&lt;TABLE&gt;">
<polygon fill="lightblue" stroke="transparent" points="531.02,-253.5 531.02,-290.5 666.02,-290.5 666.02,-253.5 531.02,-253.5"/>
<polygon fill="none" stroke="black" points="531.02,-253.5 531.02,-290.5 666.02,-290.5 666.02,-253.5 531.02,-253.5"/>
<text text-anchor="start" x="542.02" y="-269.3" font-family="Arial" font-weight="bold" font-size="14.00">PartialMerkleTree</text>
<polygon fill="none" stroke="black" points="529.52,-253 529.52,-292 666.52,-292 666.52,-253 529.52,-253"/>
</a>
</g>
</g>
<!-- ndMerkleTreeError -->
<g id="node16" class="node">
<title>ndMerkleTreeError</title>
<g id="a_node16_18"><a xlink:href="https://github.com/Neptune-Crypto/twenty-first/blob/master/src/util_types/merkle_tree.rs#:~:text=enum%20MerkleTreeError" xlink:title="&lt;TABLE&gt;">
<polygon fill="yellow" stroke="transparent" points="1213.02,-585.5 1213.02,-622.5 1340.02,-622.5 1340.02,-585.5 1213.02,-585.5"/>
<polygon fill="none" stroke="black" points="1213.02,-585.5 1213.02,-622.5 1340.02,-622.5 1340.02,-585.5 1213.02,-585.5"/>
<text text-anchor="start" x="1224.02" y="-601.3" font-family="Arial" font-weight="bold" font-size="14.00">MerkleTreeError</text>
<polygon fill="none" stroke="black" points="1211.52,-585 1211.52,-624 1340.52,-624 1340.52,-585 1211.52,-585"/>
</a>
</g>
</g>
<!-- ndNode -->
<g id="node17" class="node">
<title>ndNode</title>
<g id="a_node17_19"><a xlink:href="https://github.com/Neptune-Crypto/twenty-first/blob/master/src/util_types/tree_m_ary.rs#:~:text=struct%20Node" xlink:title="&lt;TABLE&gt;">
<polygon fill="lightblue" stroke="transparent" points="1376.02,-585.5 1376.02,-622.5 1432.02,-622.5 1432.02,-585.5 1376.02,-585.5"/>
<polygon fill="none" stroke="black" points="1376.02,-585.5 1376.02,-622.5 1432.02,-622.5 1432.02,-585.5 1376.02,-585.5"/>
<text text-anchor="start" x="1387.02" y="-601.3" font-family="Arial" font-weight="bold" font-size="14.00">Node</text>
<polygon fill="none" stroke="black" points="1375.02,-585 1375.02,-624 1433.02,-624 1433.02,-585 1375.02,-585"/>
</a>
</g>
</g>
<!-- ndMyVec -->
<g id="node19" class="node">
<title>ndMyVec</title>
<g id="a_node19_20"><a xlink:href="https://github.com/Neptune-Crypto/twenty-first/blob/master/src/mock/mmr/mock_mmr.rs#:~:text=struct%20MyVec" xlink:title="&lt;TABLE&gt;">
<polygon fill="lightblue" stroke="transparent" points="26.02,-170.5 26.02,-207.5 91.02,-207.5 91.02,-170.5 26.02,-170.5"/>
<polygon fill="none" stroke="black" points="26.02,-170.5 26.02,-207.5 91.02,-207.5 91.02,-170.5 26.02,-170.5"/>
<text text-anchor="start" x="37.02" y="-186.3" font-family="Arial" font-weight="bold" font-size="14.00">MyVec</text>
<polygon fill="none" stroke="black" points="24.52,-170 24.52,-209 91.52,-209 91.52,-170 24.52,-170"/>
</a>
</g>
</g>
<!-- ndMyVec&#45;&gt;ndMockMmr -->
<g id="edge13" class="edge">
<title>ndMyVec&#45;&gt;ndMockMmr</title>
<path fill="none" stroke="black" d="M99.79,-169.29C102.88,-168.11 105.98,-167 109.02,-166 174.99,-144.34 252.88,-128.13 306.68,-118.34"/>
<polygon fill="black" stroke="black" points="306.99,-118.28 312.19,-113.28 318.8,-116.16 313.6,-121.16 306.99,-118.28"/>
</g>
<!-- ndCyclicGroupGenerator -->
<g id="node20" class="node">
<title>ndCyclicGroupGenerator</title>
<g id="a_node20_21"><a xlink:href="https://github.com/Neptune-Crypto/twenty-first/blob/master/src/math/traits.rs#:~:text=trait%20CyclicGroupGenerator" xlink:title="&lt;TABLE&gt;">
<polygon fill="lightgreen" stroke="transparent" points="1105.02,-336.5 1105.02,-373.5 1274.02,-373.5 1274.02,-336.5 1105.02,-336.5"/>
<polygon fill="none" stroke="black" points="1105.02,-336.5 1105.02,-373.5 1274.02,-373.5 1274.02,-336.5 1105.02,-336.5"/>
<text text-anchor="start" x="1116.02" y="-352.3" font-family="Arial" font-weight="bold" font-size="14.00">CyclicGroupGenerator</text>
<polygon fill="none" stroke="black" points="1103.52,-336 1103.52,-375 1274.52,-375 1274.52,-336 1103.52,-336"/>
</a>
</g>
</g>
<!-- ndBFieldElement -->
<g id="node33" class="node">
<title>ndBFieldElement</title>
<g id="a_node33_22"><a xlink:href="https://github.com/Neptune-Crypto/twenty-first/blob/master/src/math/b_field_element.rs#:~:text=struct%20BFieldElement" xlink:title="&lt;TABLE&gt;">
<polygon fill="lightblue" stroke="transparent" points="1048.02,-170.5 1048.02,-207.5 1165.02,-207.5 1165.02,-170.5 1048.02,-170.5"/>
<polygon fill="none" stroke="black" points="1048.02,-170.5 1048.02,-207.5 1165.02,-207.5 1165.02,-170.5 1048.02,-170.5"/>
<text text-anchor="start" x="1059.02" y="-186.3" font-family="Arial" font-weight="bold" font-size="14.00">BFieldElement</text>
<polygon fill="none" stroke="black" points="1046.52,-170 1046.52,-209 1165.52,-209 1165.52,-170 1046.52,-170"/>
</a>
</g>
</g>
<!-- ndCyclicGroupGenerator&#45;&gt;ndBFieldElement -->
<g id="edge14" class="edge">
<title>ndCyclicGroupGenerator&#45;&gt;ndBFieldElement</title>
<path fill="none" stroke="black" stroke-dasharray="5,2" d="M1192.69,-331.63C1195.14,-309.21 1195.77,-274.75 1182.02,-249 1175.89,-237.53 1166.43,-227.61 1156.23,-219.36"/>
<polygon fill="none" stroke="black" points="1158.04,-216.34 1147.95,-213.11 1153.82,-221.93 1158.04,-216.34"/>
</g>
<!-- ndXFieldElement -->
<g id="node34" class="node">
<title>ndXFieldElement</title>
<g id="a_node34_23"><a xlink:href="https://github.com/Neptune-Crypto/twenty-first/blob/master/src/math/x_field_element.rs#:~:text=struct%20XFieldElement" xlink:title="&lt;TABLE&gt;">
<polygon fill="lightblue" stroke="transparent" points="1048.02,-253.5 1048.02,-290.5 1164.02,-290.5 1164.02,-253.5 1048.02,-253.5"/>
<polygon fill="none" stroke="black" points="1048.02,-253.5 1048.02,-290.5 1164.02,-290.5 1164.02,-253.5 1048.02,-253.5"/>
<text text-anchor="start" x="1059.02" y="-269.3" font-family="Arial" font-weight="bold" font-size="14.00">XFieldElement</text>
<polygon fill="none" stroke="black" points="1047.02,-253 1047.02,-292 1165.02,-292 1165.02,-253 1047.02,-253"/>
</a>
</g>
</g>
<!-- ndCyclicGroupGenerator&#45;&gt;ndXFieldElement -->
<g id="edge15" class="edge">
<title>ndCyclicGroupGenerator&#45;&gt;ndXFieldElement</title>
<path fill="none" stroke="black" stroke-dasharray="5,2" d="M1165.9,-331.94C1156.8,-323.06 1146.23,-312.74 1136.52,-303.27"/>
<polygon fill="none" stroke="black" points="1138.9,-300.7 1129.3,-296.22 1134.01,-305.71 1138.9,-300.7"/>
</g>
<!-- ndInverse -->
<g id="node21" class="node">
<title>ndInverse</title>
<g id="a_node21_24"><a xlink:href="https://github.com/Neptune-Crypto/twenty-first/blob/master/src/math/traits.rs#:~:text=trait%20Inverse" xlink:title="&lt;TABLE&gt;">
<polygon fill="lightgreen" stroke="transparent" points="1309.02,-336.5 1309.02,-373.5 1379.02,-373.5 1379.02,-336.5 1309.02,-336.5"/>
<polygon fill="none" stroke="black" points="1309.02,-336.5 1309.02,-373.5 1379.02,-373.5 1379.02,-336.5 1309.02,-336.5"/>
<text text-anchor="start" x="1320.02" y="-352.3" font-family="Arial" font-weight="bold" font-size="14.00">Inverse</text>
<polygon fill="none" stroke="black" points="1308.02,-336 1308.02,-375 1380.02,-375 1380.02,-336 1308.02,-336"/>
</a>
</g>
</g>
<!-- ndInverse&#45;&gt;ndBFieldElement -->
<g id="edge16" class="edge">
<title>ndInverse&#45;&gt;ndBFieldElement</title>
<path fill="none" stroke="black" stroke-dasharray="5,2" d="M1315.21,-331.88C1286.92,-309.95 1242.26,-276.12 1202.02,-249 1186.6,-238.6 1169.35,-227.84 1153.78,-218.43"/>
<polygon fill="none" stroke="black" points="1155.21,-215.2 1144.83,-213.05 1151.6,-221.2 1155.21,-215.2"/>
</g>
<!-- ndInverse&#45;&gt;ndXFieldElement -->
<g id="edge17" class="edge">
<title>ndInverse&#45;&gt;ndXFieldElement</title>
<path fill="none" stroke="black" stroke-dasharray="5,2" d="M1299.9,-335.4C1296.91,-334.22 1293.93,-333.07 1291.02,-332 1255.93,-319.04 1216.48,-306.31 1183.05,-296.06"/>
<polygon fill="none" stroke="black" points="1183.92,-292.67 1173.33,-293.1 1181.88,-299.36 1183.92,-292.67"/>
</g>
<!-- ndPrimitiveRootOfUnity -->
<g id="node22" class="node">
<title>ndPrimitiveRootOfUnity</title>
<g id="a_node22_25"><a xlink:href="https://github.com/Neptune-Crypto/twenty-first/blob/master/src/math/traits.rs#:~:text=trait%20PrimitiveRootOfUnity" xlink:title="&lt;TABLE&gt;">
<polygon fill="lightgreen" stroke="transparent" points="1416.02,-336.5 1416.02,-373.5 1577.02,-373.5 1577.02,-336.5 1416.02,-336.5"/>
<polygon fill="none" stroke="black" points="1416.02,-336.5 1416.02,-373.5 1577.02,-373.5 1577.02,-336.5 1416.02,-336.5"/>
<text text-anchor="start" x="1427.02" y="-352.3" font-family="Arial" font-weight="bold" font-size="14.00">PrimitiveRootOfUnity</text>
<polygon fill="none" stroke="black" points="1414.52,-336 1414.52,-375 1577.52,-375 1577.52,-336 1414.52,-336"/>
</a>
</g>
</g>
<!-- ndPrimitiveRootOfUnity&#45;&gt;ndBFieldElement -->
<g id="edge18" class="edge">
<title>ndPrimitiveRootOfUnity&#45;&gt;ndBFieldElement</title>
<path fill="none" stroke="black" stroke-dasharray="5,2" d="M1443.36,-331.89C1393.21,-310.41 1315.56,-277.28 1248.02,-249 1222.83,-238.46 1195.07,-226.99 1170.83,-217.02"/>
<polygon fill="none" stroke="black" points="1171.96,-213.7 1161.38,-213.13 1169.3,-220.17 1171.96,-213.7"/>
</g>
<!-- ndPrimitiveRootOfUnity&#45;&gt;ndXFieldElement -->
<g id="edge19" class="edge">
<title>ndPrimitiveRootOfUnity&#45;&gt;ndXFieldElement</title>
<path fill="none" stroke="black" stroke-dasharray="5,2" d="M1406.46,-334.04C1403.28,-333.35 1400.12,-332.66 1397.02,-332 1324.62,-316.5 1241.81,-299.97 1183.1,-288.45"/>
<polygon fill="none" stroke="black" points="1183.64,-284.99 1173.15,-286.5 1182.29,-291.86 1183.64,-284.99"/>
</g>
<!-- ndModPowU64 -->
<g id="node23" class="node">
<title>ndModPowU64</title>
<g id="a_node23_26"><a xlink:href="https://github.com/Neptune-Crypto/twenty-first/blob/master/src/math/traits.rs#:~:text=trait%20ModPowU64" xlink:title="&lt;TABLE&gt;">
<polygon fill="lightgreen" stroke="transparent" points="698.02,-336.5 698.02,-373.5 802.02,-373.5 802.02,-336.5 698.02,-336.5"/>
<polygon fill="none" stroke="black" points="698.02,-336.5 698.02,-373.5 802.02,-373.5 802.02,-336.5 698.02,-336.5"/>
<text text-anchor="start" x="709.02" y="-352.3" font-family="Arial" font-weight="bold" font-size="14.00">ModPowU64</text>
<polygon fill="none" stroke="black" points="697.02,-336 697.02,-375 803.02,-375 803.02,-336 697.02,-336"/>
</a>
</g>
</g>
<!-- ndModPowU64&#45;&gt;ndBFieldElement -->
<g id="edge20" class="edge">
<title>ndModPowU64&#45;&gt;ndBFieldElement</title>
<path fill="none" stroke="black" stroke-dasharray="5,2" d="M790.62,-331.99C831.54,-309.69 896.79,-275.18 955.02,-249 980.37,-237.6 1008.66,-226.28 1033.84,-216.68"/>
<polygon fill="none" stroke="black" points="1035.22,-219.91 1043.33,-213.09 1032.74,-213.36 1035.22,-219.91"/>
</g>
<!-- ndModPowU64&#45;&gt;ndXFieldElement -->
<g id="edge21" class="edge">
<title>ndModPowU64&#45;&gt;ndXFieldElement</title>
<path fill="none" stroke="black" stroke-dasharray="5,2" d="M811.37,-334.36C814.28,-333.54 817.18,-332.74 820.02,-332 889.97,-313.66 970.79,-297.59 1028.63,-286.96"/>
<polygon fill="none" stroke="black" points="1029.59,-290.34 1038.8,-285.1 1028.33,-283.46 1029.59,-290.34"/>
</g>
<!-- ndModPowU32 -->
<g id="node24" class="node">
<title>ndModPowU32</title>
<g id="a_node24_27"><a xlink:href="https://github.com/Neptune-Crypto/twenty-first/blob/master/src/math/traits.rs#:~:text=trait%20ModPowU32" xlink:title="&lt;TABLE&gt;">
<polygon fill="lightgreen" stroke="transparent" points="838.02,-336.5 838.02,-373.5 942.02,-373.5 942.02,-336.5 838.02,-336.5"/>
<polygon fill="none" stroke="black" points="838.02,-336.5 838.02,-373.5 942.02,-373.5 942.02,-336.5 838.02,-336.5"/>
<text text-anchor="start" x="849.02" y="-352.3" font-family="Arial" font-weight="bold" font-size="14.00">ModPowU32</text>
<polygon fill="none" stroke="black" points="837.02,-336 837.02,-375 943.02,-375 943.02,-336 837.02,-336"/>
</a>
</g>
</g>
<!-- ndModPowU32&#45;&gt;ndBFieldElement -->
<g id="edge22" class="edge">
<title>ndModPowU32&#45;&gt;ndBFieldElement</title>
<path fill="none" stroke="black" stroke-dasharray="5,2" d="M915.08,-331.67C939.77,-309.6 978.93,-275.66 1015.02,-249 1029.16,-238.56 1045.12,-227.93 1059.68,-218.65"/>
<polygon fill="none" stroke="black" points="1061.95,-221.36 1068.54,-213.06 1058.21,-215.44 1061.95,-221.36"/>
</g>
<!-- ndModPowU32&#45;&gt;ndXFieldElement -->
<g id="edge23" class="edge">
<title>ndModPowU32&#45;&gt;ndXFieldElement</title>
<path fill="none" stroke="black" stroke-dasharray="5,2" d="M950.19,-331.94C976.87,-321.93 1008.44,-310.09 1036.17,-299.69"/>
<polygon fill="none" stroke="black" points="1037.66,-302.87 1045.8,-296.08 1035.21,-296.32 1037.66,-302.87"/>
</g>
<!-- ndFiniteField -->
<g id="node25" class="node">
<title>ndFiniteField</title>
<g id="a_node25_28"><a xlink:href="https://github.com/Neptune-Crypto/twenty-first/blob/master/src/math/traits.rs#:~:text=trait%20FiniteField" xlink:title="&lt;TABLE&gt;">
<polygon fill="lightgreen" stroke="transparent" points="978.02,-336.5 978.02,-373.5 1068.02,-373.5 1068.02,-336.5 978.02,-336.5"/>
<polygon fill="none" stroke="black" points="978.02,-336.5 978.02,-373.5 1068.02,-373.5 1068.02,-336.5 978.02,-336.5"/>
<text text-anchor="start" x="989.02" y="-352.3" font-family="Arial" font-weight="bold" font-size="14.00">FiniteField</text>
<polygon fill="none" stroke="black" points="977.02,-336 977.02,-375 1069.02,-375 1069.02,-336 977.02,-336"/>
</a>
</g>
</g>
<!-- ndFiniteField&#45;&gt;ndBFieldElement -->
<g id="edge24" class="edge">
<title>ndFiniteField&#45;&gt;ndBFieldElement</title>
<path fill="none" stroke="black" stroke-dasharray="5,2" d="M1019.35,-331.63C1016.9,-309.21 1016.27,-274.75 1030.02,-249 1036.15,-237.53 1045.61,-227.61 1055.8,-219.36"/>
<polygon fill="none" stroke="black" points="1058.21,-221.93 1064.09,-213.11 1054,-216.34 1058.21,-221.93"/>
</g>
<!-- ndFiniteField&#45;&gt;ndXFieldElement -->
<g id="edge25" class="edge">
<title>ndFiniteField&#45;&gt;ndXFieldElement</title>
<path fill="none" stroke="black" stroke-dasharray="5,2" d="M1046.14,-331.94C1055.24,-323.06 1065.81,-312.74 1075.52,-303.27"/>
<polygon fill="none" stroke="black" points="1078.02,-305.71 1082.73,-296.22 1073.13,-300.7 1078.02,-305.71"/>
</g>
<!-- ndPolynomial -->
<g id="node27" class="node">
<title>ndPolynomial</title>
<g id="a_node27_29"><a xlink:href="https://github.com/Neptune-Crypto/twenty-first/blob/master/src/math/polynomial.rs#:~:text=struct%20Polynomial" xlink:title="&lt;TABLE&gt;">
<polygon fill="lightblue" stroke="transparent" points="1305.02,-87.5 1305.02,-124.5 1400.02,-124.5 1400.02,-87.5 1305.02,-87.5"/>
<polygon fill="none" stroke="black" points="1305.02,-87.5 1305.02,-124.5 1400.02,-124.5 1400.02,-87.5 1305.02,-87.5"/>
<text text-anchor="start" x="1316.02" y="-103.3" font-family="Arial" font-weight="bold" font-size="14.00">Polynomial</text>
<polygon fill="none" stroke="black" points="1303.52,-87 1303.52,-126 1400.52,-126 1400.52,-87 1303.52,-87"/>
</a>
</g>
</g>
<!-- ndPolynomial&#45;&gt;ndXFieldElement -->
<g id="edge26" class="edge">
<title>ndPolynomial&#45;&gt;ndXFieldElement</title>
<path fill="none" stroke="black" d="M1358.66,-130.07C1359.79,-153.91 1354.1,-191.03 1332.02,-213 1293.42,-251.41 1232.4,-265.33 1183.43,-270.04"/>
<polygon fill="black" stroke="black" points="1173.18,-270.91 1182.76,-265.58 1178.16,-270.49 1183.14,-270.07 1183.14,-270.07 1183.14,-270.07 1178.16,-270.49 1183.52,-274.55 1173.18,-270.91 1173.18,-270.91"/>
</g>
<!-- ndBFieldCodec -->
<g id="node28" class="node">
<title>ndBFieldCodec</title>
<g id="a_node28_30"><a xlink:href="https://github.com/Neptune-Crypto/twenty-first/blob/master/src/math/bfield_codec.rs#:~:text=trait%20BFieldCodec" xlink:title="&lt;TABLE&gt;">
<polygon fill="lightgreen" stroke="transparent" points="1201.02,-170.5 1201.02,-207.5 1306.02,-207.5 1306.02,-170.5 1201.02,-170.5"/>
<polygon fill="none" stroke="black" points="1201.02,-170.5 1201.02,-207.5 1306.02,-207.5 1306.02,-170.5 1201.02,-170.5"/>
<text text-anchor="start" x="1212.02" y="-186.3" font-family="Arial" font-weight="bold" font-size="14.00">BFieldCodec</text>
<polygon fill="none" stroke="black" points="1199.52,-170 1199.52,-209 1306.52,-209 1306.52,-170 1199.52,-170"/>
</a>
</g>
</g>
<!-- ndBFieldCodec&#45;&gt;ndPolynomial -->
<g id="edge27" class="edge">
<title>ndBFieldCodec&#45;&gt;ndPolynomial</title>
<path fill="none" stroke="black" stroke-dasharray="5,2" d="M1280.6,-165.94C1291.66,-156.88 1304.55,-146.33 1316.32,-136.71"/>
<polygon fill="none" stroke="black" points="1318.72,-139.26 1324.25,-130.22 1314.29,-133.85 1318.72,-139.26"/>
</g>
<!-- ndU32s -->
<g id="node36" class="node">
<title>ndU32s</title>
<g id="a_node36_31"><a xlink:href="https://github.com/Neptune-Crypto/twenty-first/blob/master/src/amount/u32s.rs#:~:text=struct%20U32s" xlink:title="&lt;TABLE&gt;">
<polygon fill="lightblue" stroke="transparent" points="1214.02,-87.5 1214.02,-124.5 1269.02,-124.5 1269.02,-87.5 1214.02,-87.5"/>
<polygon fill="none" stroke="black" points="1214.02,-87.5 1214.02,-124.5 1269.02,-124.5 1269.02,-87.5 1214.02,-87.5"/>
<text text-anchor="start" x="1225.02" y="-103.3" font-family="Arial" font-weight="bold" font-size="14.00">U32s</text>
<polygon fill="none" stroke="black" points="1212.52,-87 1212.52,-126 1269.52,-126 1269.52,-87 1212.52,-87"/>
</a>
</g>
</g>
<!-- ndBFieldCodec&#45;&gt;ndU32s -->
<g id="edge28" class="edge">
<title>ndBFieldCodec&#45;&gt;ndU32s</title>
<path fill="none" stroke="black" stroke-dasharray="5,2" d="M1249.68,-165.94C1248.5,-158.02 1247.16,-148.95 1245.89,-140.36"/>
<polygon fill="none" stroke="black" points="1249.31,-139.6 1244.38,-130.22 1242.39,-140.63 1249.31,-139.6"/>
</g>
<!-- ndBFieldCodecError -->
<g id="node29" class="node">
<title>ndBFieldCodecError</title>
<g id="a_node29_32"><a xlink:href="https://github.com/Neptune-Crypto/twenty-first/blob/master/src/math/bfield_codec.rs#:~:text=enum%20BFieldCodecError" xlink:title="&lt;TABLE&gt;">
<polygon fill="yellow" stroke="transparent" points="1468.02,-585.5 1468.02,-622.5 1606.02,-622.5 1606.02,-585.5 1468.02,-585.5"/>
<polygon fill="none" stroke="black" points="1468.02,-585.5 1468.02,-622.5 1606.02,-622.5 1606.02,-585.5 1468.02,-585.5"/>
<text text-anchor="start" x="1479.02" y="-601.3" font-family="Arial" font-weight="bold" font-size="14.00">BFieldCodecError</text>
<polygon fill="none" stroke="black" points="1467.02,-585 1467.02,-624 1607.02,-624 1607.02,-585 1467.02,-585"/>
</a>
</g>
</g>
<!-- ndPolynomialBFieldCodecError -->
<g id="node30" class="node">
<title>ndPolynomialBFieldCodecError</title>
<g id="a_node30_33"><a xlink:href="https://github.com/Neptune-Crypto/twenty-first/blob/master/src/math/bfield_codec.rs#:~:text=enum%20PolynomialBFieldCodecError" xlink:title="&lt;TABLE&gt;">
<polygon fill="yellow" stroke="transparent" points="1432.02,-502.5 1432.02,-539.5 1643.02,-539.5 1643.02,-502.5 1432.02,-502.5"/>
<polygon fill="none" stroke="black" points="1432.02,-502.5 1432.02,-539.5 1643.02,-539.5 1643.02,-502.5 1432.02,-502.5"/>
<text text-anchor="start" x="1443.02" y="-518.3" font-family="Arial" font-weight="bold" font-size="14.00">PolynomialBFieldCodecError</text>
<polygon fill="none" stroke="black" points="1430.52,-502 1430.52,-541 1643.52,-541 1643.52,-502 1430.52,-502"/>
</a>
</g>
</g>
<!-- ndBFieldCodecError&#45;&gt;ndPolynomialBFieldCodecError -->
<g id="edge29" class="edge">
<title>ndBFieldCodecError&#45;&gt;ndPolynomialBFieldCodecError</title>
<path fill="none" stroke="black" d="M1537.02,-580.94C1537.02,-573.63 1537.02,-565.34 1537.02,-557.35"/>
<polygon fill="black" stroke="black" points="1537.02,-557.22 1533.02,-551.22 1537.02,-545.22 1541.02,-551.22 1537.02,-557.22"/>
</g>
<!-- ndCyclotomicRingElement -->
<g id="node31" class="node">
<title>ndCyclotomicRingElement</title>
<g id="a_node31_34"><a xlink:href="https://github.com/Neptune-Crypto/twenty-first/blob/master/src/math/lattice.rs#:~:text=struct%20CyclotomicRingElement" xlink:title="&lt;TABLE&gt;">
<polygon fill="lightblue" stroke="transparent" points="999.02,-87.5 999.02,-124.5 1178.02,-124.5 1178.02,-87.5 999.02,-87.5"/>
<polygon fill="none" stroke="black" points="999.02,-87.5 999.02,-124.5 1178.02,-124.5 1178.02,-87.5 999.02,-87.5"/>
<text text-anchor="start" x="1010.02" y="-103.3" font-family="Arial" font-weight="bold" font-size="14.00">CyclotomicRingElement</text>
<polygon fill="none" stroke="black" points="997.52,-87 997.52,-126 1178.52,-126 1178.52,-87 997.52,-87"/>
</a>
</g>
</g>
<!-- ndModuleElement -->
<g id="node32" class="node">
<title>ndModuleElement</title>
<g id="a_node32_35"><a xlink:href="https://github.com/Neptune-Crypto/twenty-first/blob/master/src/math/lattice.rs#:~:text=struct%20ModuleElement" xlink:title="&lt;TABLE&gt;">
<polygon fill="lightblue" stroke="transparent" points="1026.02,-4.5 1026.02,-41.5 1150.02,-41.5 1150.02,-4.5 1026.02,-4.5"/>
<polygon fill="none" stroke="black" points="1026.02,-4.5 1026.02,-41.5 1150.02,-41.5 1150.02,-4.5 1026.02,-4.5"/>
<text text-anchor="start" x="1037.02" y="-20.3" font-family="Arial" font-weight="bold" font-size="14.00">ModuleElement</text>
<polygon fill="none" stroke="black" points="1025.02,-4 1025.02,-43 1151.02,-43 1151.02,-4 1025.02,-4"/>
</a>
</g>
</g>
<!-- ndCyclotomicRingElement&#45;&gt;ndModuleElement -->
<g id="edge30" class="edge">
<title>ndCyclotomicRingElement&#45;&gt;ndModuleElement</title>
<path fill="none" stroke="black" d="M1088.02,-82.94C1088.02,-75.63 1088.02,-67.34 1088.02,-59.35"/>
<polygon fill="black" stroke="black" points="1088.02,-59.22 1084.02,-53.22 1088.02,-47.22 1092.02,-53.22 1088.02,-59.22"/>
</g>
<!-- ndBFieldElement&#45;&gt;ndTip5 -->
<g id="edge31" class="edge">
<title>ndBFieldElement&#45;&gt;ndTip5</title>
<path fill="none" stroke="black" stroke-dasharray="5,2" d="M1039.16,-165.94C998.54,-152.23 947.73,-135.08 911.69,-122.91"/>
<polygon fill="black" stroke="black" points="911.44,-122.83 904.47,-124.7 900.07,-118.99 907.03,-117.12 911.44,-122.83"/>
</g>
<!-- ndBFieldElement&#45;&gt;ndPolynomial -->
<g id="edge32" class="edge">
<title>ndBFieldElement&#45;&gt;ndPolynomial</title>
<path fill="none" stroke="black" stroke-dasharray="5,2" d="M1173.62,-166.78C1207.42,-155.86 1248.92,-142.35 1286.02,-130 1286.12,-129.97 1286.21,-129.94 1286.31,-129.9"/>
<polygon fill="black" stroke="black" points="1295.51,-126.82 1287.46,-134.26 1290.77,-128.41 1286.03,-130 1286.03,-130 1286.03,-130 1290.77,-128.41 1284.6,-125.73 1295.51,-126.82 1295.51,-126.82"/>
</g>
<!-- ndBFieldElement&#45;&gt;ndCyclotomicRingElement -->
<g id="edge33" class="edge">
<title>ndBFieldElement&#45;&gt;ndCyclotomicRingElement</title>
<path fill="none" stroke="black" d="M1101,-165.94C1099.36,-158.54 1097.49,-150.14 1095.7,-142.06"/>
<polygon fill="black" stroke="black" points="1095.67,-141.94 1090.46,-136.95 1093.07,-130.22 1098.27,-135.21 1095.67,-141.94"/>
</g>
<!-- ndBFieldElement&#45;&gt;ndXFieldElement -->
<g id="edge34" class="edge">
<title>ndBFieldElement&#45;&gt;ndXFieldElement</title>
<path fill="none" stroke="black" stroke-dasharray="5,2" d="M1112.15,-213.22C1112.69,-220.55 1112.88,-228.84 1112.71,-236.83"/>
<polygon fill="black" stroke="black" points="1112.7,-236.95 1116.42,-243.13 1112.14,-248.94 1108.43,-242.76 1112.7,-236.95"/>
</g>
<!-- ndBFieldElement&#45;&gt;ndDigest -->
<g id="edge35" class="edge">
<title>ndBFieldElement&#45;&gt;ndDigest</title>
<path fill="none" stroke="black" d="M1038.5,-210.56C1035.3,-211.41 1032.13,-212.23 1029.02,-213 952.39,-232.09 924.91,-212.23 855.02,-249 828.31,-263.05 832.86,-282.21 806.02,-296 761.54,-318.86 623.59,-338.63 546.51,-348.25"/>
<polygon fill="black" stroke="black" points="546.14,-348.3 540.67,-353 534.23,-349.77 539.69,-345.06 546.14,-348.3"/>
</g>
<!-- ndBFieldElement&#45;&gt;ndU32s -->
<g id="edge36" class="edge">
<title>ndBFieldElement&#45;&gt;ndU32s</title>
<path fill="none" stroke="black" d="M1143.62,-165.94C1159.7,-156.29 1178.61,-144.94 1195.48,-134.82"/>
<polygon fill="black" stroke="black" points="1204.08,-129.66 1197.82,-138.67 1199.79,-132.23 1195.51,-134.81 1195.51,-134.81 1195.51,-134.81 1199.79,-132.23 1193.19,-130.95 1204.08,-129.66 1204.08,-129.66"/>
</g>
<!-- ndXFieldElement&#45;&gt;ndPolynomial -->
<g id="edge37" class="edge">
<title>ndXFieldElement&#45;&gt;ndPolynomial</title>
<path fill="none" stroke="black" stroke-dasharray="5,2" d="M1173.17,-269.52C1218.59,-264.34 1276.75,-250.09 1314.02,-213 1333.17,-193.94 1339.99,-163.5 1343.82,-140.2"/>
<polygon fill="black" stroke="black" points="1345.4,-130.07 1348.3,-140.64 1344.63,-135.01 1343.86,-139.95 1343.86,-139.95 1343.86,-139.95 1344.63,-135.01 1339.41,-139.26 1345.4,-130.07 1345.4,-130.07"/>
</g>
<!-- ndXFieldElement&#45;&gt;ndBFieldElement -->
<g id="edge38" class="edge">
<title>ndXFieldElement&#45;&gt;ndBFieldElement</title>
<path fill="none" stroke="black" stroke-dasharray="5,2" d="M1099.89,-248.94C1099.3,-241.02 1099.13,-231.95 1099.38,-223.36"/>
<polygon fill="black" stroke="black" points="1099.88,-213.22 1103.88,-223.44 1099.63,-218.22 1099.38,-223.21 1099.38,-223.21 1099.38,-223.21 1099.63,-218.22 1094.89,-222.99 1099.88,-213.22 1099.88,-213.22"/>
</g>
<!-- ndDigest&#45;&gt;ndMmrAccumulator -->
<g id="edge39" class="edge">
<title>ndDigest&#45;&gt;ndMmrAccumulator</title>
<path fill="none" stroke="black" stroke-dasharray="5,2" d="M491.07,-331.7C488.72,-304.16 484.74,-257.55 482,-225.46"/>
<polygon fill="black" stroke="black" points="481.97,-225.07 477.47,-219.43 480.95,-213.11 485.44,-218.75 481.97,-225.07"/>
</g>
<!-- ndDigest&#45;&gt;ndMmrMembershipProof -->
<g id="edge40" class="edge">
<title>ndDigest&#45;&gt;ndMmrMembershipProof</title>
<path fill="none" stroke="black" stroke-dasharray="5,2" d="M459.31,-331.94C445.92,-322.97 430.33,-312.54 416.07,-302.99"/>
<polygon fill="black" stroke="black" points="415.93,-302.9 408.72,-302.88 405.96,-296.22 413.17,-296.24 415.93,-302.9"/>
</g>
<!-- ndDigest&#45;&gt;ndMerkleTree -->
<g id="edge41" class="edge">
<title>ndDigest&#45;&gt;ndMerkleTree</title>
<path fill="none" stroke="black" d="M451.86,-352.17C346.18,-345.79 71.7,-326.39 45.02,-296 31.24,-280.3 33.7,-266.56 45.02,-249 49.01,-242.81 77.47,-229.62 106.65,-217.33"/>
<polygon fill="black" stroke="black" points="106.74,-217.29 110.74,-211.29 117.82,-212.68 113.82,-218.68 106.74,-217.29"/>
</g>
<!-- ndDigest&#45;&gt;ndMerkleTreeInclusionProof -->
<g id="edge42" class="edge">
<title>ndDigest&#45;&gt;ndMerkleTreeInclusionProof</title>
<path fill="none" stroke="black" stroke-dasharray="5,2" d="M451.82,-344.57C404.88,-333.25 326.38,-314.33 262.19,-298.85"/>
<polygon fill="black" stroke="black" points="262.04,-298.82 255.27,-301.3 250.38,-296.01 257.15,-293.52 262.04,-298.82"/>
</g>
<!-- ndDigest&#45;&gt;ndPartialMerkleTree -->
<g id="edge43" class="edge">
<title>ndDigest&#45;&gt;ndPartialMerkleTree</title>
<path fill="none" stroke="black" d="M522.27,-331.94C534.11,-322.8 547.94,-312.13 560.51,-302.43"/>
<polygon fill="black" stroke="black" points="568.56,-296.22 563.39,-305.89 564.6,-299.28 560.64,-302.33 560.64,-302.33 560.64,-302.33 564.6,-299.28 557.9,-298.77 568.56,-296.22 568.56,-296.22"/>
</g>
<!-- ndDigest&#45;&gt;ndMockMmr -->
<g id="edge44" class="edge">
<title>ndDigest&#45;&gt;ndMockMmr</title>
<path fill="none" stroke="black" stroke-dasharray="5,2" d="M451.83,-354.82C350.91,-354.76 94.92,-349.22 32.02,-296 2.61,-271.12 12.63,-251.11 7.02,-213 3.97,-192.33 -6.53,-181.9 7.02,-166 44.77,-121.71 212.22,-110.82 306.65,-108.22"/>
<polygon fill="black" stroke="black" points="306.91,-108.22 312.81,-104.07 318.91,-107.92 313.01,-112.07 306.91,-108.22"/>
</g>
<!-- ndDigest&#45;&gt;ndTip5 -->
<g id="edge45" class="edge">
<title>ndDigest&#45;&gt;ndTip5</title>
<path fill="none" stroke="black" stroke-dasharray="5,2" d="M534.09,-351C602.99,-344.31 737.71,-327.51 772.02,-296 816.44,-255.19 780.89,-218.26 811.02,-166 816.89,-155.82 824.86,-146 832.91,-137.41"/>
<polygon fill="black" stroke="black" points="839.95,-130.19 836.18,-140.49 836.45,-133.77 832.96,-137.35 832.96,-137.35 832.96,-137.35 836.45,-133.77 829.74,-134.21 839.95,-130.19 839.95,-130.19"/>
</g>
<!-- ndDigest&#45;&gt;ndXFieldElement -->
<g id="edge46" class="edge">
<title>ndDigest&#45;&gt;ndXFieldElement</title>
<path fill="none" stroke="black" stroke-dasharray="5,2" d="M534.19,-349.06C635.44,-335.68 897.83,-301.01 1029.01,-283.68"/>
<polygon fill="black" stroke="black" points="1038.99,-282.36 1029.66,-288.13 1034.03,-283.01 1029.07,-283.67 1029.07,-283.67 1029.07,-283.67 1034.03,-283.01 1028.48,-279.21 1038.99,-282.36 1038.99,-282.36"/>
</g>
</g>
</svg>
