<?xml version="1.0" encoding="UTF-8" standalone="no"?>
<!DOCTYPE svg PUBLIC "-//W3C//DTD SVG 1.1//EN"
 "http://www.w3.org/Graphics/SVG/1.1/DTD/svg11.dtd">
<!-- Generated by graphviz version 2.43.0 (0)
 -->
<!-- Title: ml Pages: 1 -->
<svg width="1623pt" height="636pt"
 viewBox="0.00 0.00 1622.99 636.00" xmlns="http://www.w3.org/2000/svg" xmlns:xlink="http://www.w3.org/1999/xlink">
<g id="graph0" class="graph" transform="scale(1 1) rotate(0) translate(4 632)">
<title>ml</title>
<polygon fill="white" stroke="transparent" points="-4,4 -4,-632 1618.99,-632 1618.99,4 -4,4"/>
<!-- ndParseBFieldElementError -->
<g id="node1" class="node">
<title>ndParseBFieldElementError</title>
<g id="a_node1_0"><a xlink:href="https://github.com/Neptune-Crypto/twenty-first/blob/master/src/error.rs#:~:text=enum%20ParseBFieldElementError" xlink:title="&lt;TABLE&gt;">
<polygon fill="yellow" stroke="transparent" points="399.99,-585.5 399.99,-622.5 586.99,-622.5 586.99,-585.5 399.99,-585.5"/>
<polygon fill="none" stroke="black" points="399.99,-585.5 399.99,-622.5 586.99,-622.5 586.99,-585.5 399.99,-585.5"/>
<text text-anchor="start" x="410.99" y="-601.3" font-family="Arial" font-weight="bold" font-size="14.00">ParseBFieldElementError</text>
<polygon fill="none" stroke="black" points="398.49,-585 398.49,-624 587.49,-624 587.49,-585 398.49,-585"/>
</a>
</g>
</g>
<!-- ndTryFromDigestError -->
<g id="node4" class="node">
<title>ndTryFromDigestError</title>
<g id="a_node4_1"><a xlink:href="https://github.com/Neptune-Crypto/twenty-first/blob/master/src/error.rs#:~:text=enum%20TryFromDigestError" xlink:title="&lt;TABLE&gt;">
<polygon fill="yellow" stroke="transparent" points="416.99,-502.5 416.99,-539.5 568.99,-539.5 568.99,-502.5 416.99,-502.5"/>
<polygon fill="none" stroke="black" points="416.99,-502.5 416.99,-539.5 568.99,-539.5 568.99,-502.5 416.99,-502.5"/>
<text text-anchor="start" x="427.99" y="-518.3" font-family="Arial" font-weight="bold" font-size="14.00">TryFromDigestError</text>
<polygon fill="none" stroke="black" points="415.99,-502 415.99,-541 569.99,-541 569.99,-502 415.99,-502"/>
</a>
</g>
</g>
<!-- ndParseBFieldElementError&#45;&gt;ndTryFromDigestError -->
<g id="edge1" class="edge">
<title>ndParseBFieldElementError&#45;&gt;ndTryFromDigestError</title>
<path fill="none" stroke="black" d="M492.99,-580.94C492.99,-573.63 492.99,-565.34 492.99,-557.35"/>
<polygon fill="black" stroke="black" points="492.99,-557.22 488.99,-551.22 492.99,-545.22 496.99,-551.22 492.99,-557.22"/>
</g>
<!-- ndTryFromU32sError -->
<g id="node2" class="node">
<title>ndTryFromU32sError</title>
<g id="a_node2_2"><a xlink:href="https://github.com/Neptune-Crypto/twenty-first/blob/master/src/error.rs#:~:text=enum%20TryFromU32sError" xlink:title="&lt;TABLE&gt;">
<polygon fill="yellow" stroke="transparent" points="622.99,-585.5 622.99,-622.5 765.99,-622.5 765.99,-585.5 622.99,-585.5"/>
<polygon fill="none" stroke="black" points="622.99,-585.5 622.99,-622.5 765.99,-622.5 765.99,-585.5 622.99,-585.5"/>
<text text-anchor="start" x="633.99" y="-601.3" font-family="Arial" font-weight="bold" font-size="14.00">TryFromU32sError</text>
<polygon fill="none" stroke="black" points="621.49,-585 621.49,-624 766.49,-624 766.49,-585 621.49,-585"/>
</a>
</g>
</g>
<!-- ndTryFromXFieldElementError -->
<g id="node3" class="node">
<title>ndTryFromXFieldElementError</title>
<g id="a_node3_3"><a xlink:href="https://github.com/Neptune-Crypto/twenty-first/blob/master/src/error.rs#:~:text=enum%20TryFromXFieldElementError" xlink:title="&lt;TABLE&gt;">
<polygon fill="yellow" stroke="transparent" points="801.99,-585.5 801.99,-622.5 1005.99,-622.5 1005.99,-585.5 801.99,-585.5"/>
<polygon fill="none" stroke="black" points="801.99,-585.5 801.99,-622.5 1005.99,-622.5 1005.99,-585.5 801.99,-585.5"/>
<text text-anchor="start" x="812.99" y="-601.3" font-family="Arial" font-weight="bold" font-size="14.00">TryFromXFieldElementError</text>
<polygon fill="none" stroke="black" points="800.99,-585 800.99,-624 1006.99,-624 1006.99,-585 800.99,-585"/>
</a>
</g>
</g>
<!-- ndFromHexDigestError -->
<g id="node5" class="node">
<title>ndFromHexDigestError</title>
<g id="a_node5_4"><a xlink:href="https://github.com/Neptune-Crypto/twenty-first/blob/master/src/error.rs#:~:text=enum%20FromHexDigestError" xlink:title="&lt;TABLE&gt;">
<polygon fill="yellow" stroke="transparent" points="414.99,-419.5 414.99,-456.5 570.99,-456.5 570.99,-419.5 414.99,-419.5"/>
<polygon fill="none" stroke="black" points="414.99,-419.5 414.99,-456.5 570.99,-456.5 570.99,-419.5 414.99,-419.5"/>
<text text-anchor="start" x="425.99" y="-435.3" font-family="Arial" font-weight="bold" font-size="14.00">FromHexDigestError</text>
<polygon fill="none" stroke="black" points="413.99,-419 413.99,-458 571.99,-458 571.99,-419 413.99,-419"/>
</a>
</g>
</g>
<!-- ndTryFromDigestError&#45;&gt;ndFromHexDigestError -->
<g id="edge2" class="edge">
<title>ndTryFromDigestError&#45;&gt;ndFromHexDigestError</title>
<path fill="none" stroke="black" d="M492.99,-497.94C492.99,-490.63 492.99,-482.34 492.99,-474.35"/>
<polygon fill="black" stroke="black" points="492.99,-474.22 488.99,-468.22 492.99,-462.22 496.99,-468.22 492.99,-474.22"/>
</g>
<!-- ndDigest -->
<g id="node34" class="node">
<title>ndDigest</title>
<g id="a_node34_5"><a xlink:href="https://github.com/Neptune-Crypto/twenty-first/blob/master/src/math/digest.rs#:~:text=struct%20Digest" xlink:title="&lt;TABLE&gt;">
<polygon fill="lightblue" stroke="transparent" points="460.99,-336.5 460.99,-373.5 524.99,-373.5 524.99,-336.5 460.99,-336.5"/>
<polygon fill="none" stroke="black" points="460.99,-336.5 460.99,-373.5 524.99,-373.5 524.99,-336.5 460.99,-336.5"/>
<text text-anchor="start" x="471.99" y="-352.3" font-family="Arial" font-weight="bold" font-size="14.00">Digest</text>
<polygon fill="none" stroke="black" points="459.99,-336 459.99,-375 525.99,-375 525.99,-336 459.99,-336"/>
</a>
</g>
</g>
<!-- ndFromHexDigestError&#45;&gt;ndDigest -->
<g id="edge3" class="edge">
<title>ndFromHexDigestError&#45;&gt;ndDigest</title>
<path fill="none" stroke="black" d="M492.99,-414.94C492.99,-407.02 492.99,-397.95 492.99,-389.36"/>
<polygon fill="black" stroke="black" points="492.99,-379.22 497.49,-389.22 492.99,-384.22 492.99,-389.22 492.99,-389.22 492.99,-389.22 492.99,-384.22 488.49,-389.22 492.99,-379.22 492.99,-379.22"/>
</g>
<!-- ndDomain -->
<g id="node6" class="node">
<title>ndDomain</title>
<g id="a_node6_6"><a xlink:href="https://github.com/Neptune-Crypto/twenty-first/blob/master/src/util_types/algebraic_hasher.rs#:~:text=enum%20Domain" xlink:title="&lt;TABLE&gt;">
<polygon fill="yellow" stroke="transparent" points="829.99,-170.5 829.99,-207.5 902.99,-207.5 902.99,-170.5 829.99,-170.5"/>
<polygon fill="none" stroke="black" points="829.99,-170.5 829.99,-207.5 902.99,-207.5 902.99,-170.5 829.99,-170.5"/>
<text text-anchor="start" x="840.99" y="-186.3" font-family="Arial" font-weight="bold" font-size="14.00">Domain</text>
<polygon fill="none" stroke="black" points="828.49,-170 828.49,-209 903.49,-209 903.49,-170 828.49,-170"/>
</a>
</g>
</g>
<!-- ndTip5 -->
<g id="node26" class="node">
<title>ndTip5</title>
<g id="a_node26_7"><a xlink:href="https://github.com/Neptune-Crypto/twenty-first/blob/master/src/math/tip5.rs#:~:text=struct%20Tip5" xlink:title="&lt;TABLE&gt;">
<polygon fill="lightblue" stroke="transparent" points="840.99,-87.5 840.99,-124.5 890.99,-124.5 890.99,-87.5 840.99,-87.5"/>
<polygon fill="none" stroke="black" points="840.99,-87.5 840.99,-124.5 890.99,-124.5 890.99,-87.5 840.99,-87.5"/>
<text text-anchor="start" x="851.99" y="-103.3" font-family="Arial" font-weight="bold" font-size="14.00">Tip5</text>
<polygon fill="none" stroke="black" points="839.99,-87 839.99,-126 891.99,-126 891.99,-87 839.99,-87"/>
</a>
</g>
</g>
<!-- ndDomain&#45;&gt;ndTip5 -->
<g id="edge4" class="edge">
<title>ndDomain&#45;&gt;ndTip5</title>
<path fill="none" stroke="black" stroke-dasharray="5,2" d="M865.99,-165.94C865.99,-158.02 865.99,-148.95 865.99,-140.36"/>
<polygon fill="black" stroke="black" points="865.99,-130.22 870.49,-140.22 865.99,-135.22 865.99,-140.22 865.99,-140.22 865.99,-140.22 865.99,-135.22 861.49,-140.22 865.99,-130.22 865.99,-130.22"/>
</g>
<!-- ndSponge -->
<g id="node7" class="node">
<title>ndSponge</title>
<g id="a_node7_8"><a xlink:href="https://github.com/Neptune-Crypto/twenty-first/blob/master/src/util_types/algebraic_hasher.rs#:~:text=trait%20Sponge" xlink:title="&lt;TABLE&gt;">
<polygon fill="lightgreen" stroke="transparent" points="938.99,-170.5 938.99,-207.5 1010.99,-207.5 1010.99,-170.5 938.99,-170.5"/>
<polygon fill="none" stroke="black" points="938.99,-170.5 938.99,-207.5 1010.99,-207.5 1010.99,-170.5 938.99,-170.5"/>
<text text-anchor="start" x="949.99" y="-186.3" font-family="Arial" font-weight="bold" font-size="14.00">Sponge</text>
<polygon fill="none" stroke="black" points="937.99,-170 937.99,-209 1011.99,-209 1011.99,-170 937.99,-170"/>
</a>
</g>
</g>
<!-- ndSponge&#45;&gt;ndTip5 -->
<g id="edge5" class="edge">
<title>ndSponge&#45;&gt;ndTip5</title>
<path fill="none" stroke="black" stroke-dasharray="5,2" d="M944.63,-165.94C932.33,-156.8 917.98,-146.13 904.93,-136.43"/>
<polygon fill="none" stroke="black" points="906.69,-133.38 896.57,-130.22 902.51,-139 906.69,-133.38"/>
</g>
<!-- ndAlgebraicHasher -->
<g id="node8" class="node">
<title>ndAlgebraicHasher</title>
<g id="a_node8_9"><a xlink:href="https://github.com/Neptune-Crypto/twenty-first/blob/master/src/util_types/algebraic_hasher.rs#:~:text=trait%20AlgebraicHasher" xlink:title="&lt;TABLE&gt;">
<polygon fill="lightgreen" stroke="transparent" points="624.99,-170.5 624.99,-207.5 754.99,-207.5 754.99,-170.5 624.99,-170.5"/>
<polygon fill="none" stroke="black" points="624.99,-170.5 624.99,-207.5 754.99,-207.5 754.99,-170.5 624.99,-170.5"/>
<text text-anchor="start" x="635.99" y="-186.3" font-family="Arial" font-weight="bold" font-size="14.00">AlgebraicHasher</text>
<polygon fill="none" stroke="black" points="623.99,-170 623.99,-209 755.99,-209 755.99,-170 623.99,-170"/>
</a>
</g>
</g>
<!-- ndAlgebraicHasher&#45;&gt;ndTip5 -->
<g id="edge6" class="edge">
<title>ndAlgebraicHasher&#45;&gt;ndTip5</title>
<path fill="none" stroke="black" stroke-dasharray="5,2" d="M739.02,-165.94C765.26,-153.86 797.31,-139.11 822.64,-127.45"/>
<polygon fill="none" stroke="black" points="824.37,-130.51 831.99,-123.15 821.44,-124.15 824.37,-130.51"/>
</g>
<!-- ndMerkleTreeMaker -->
<g id="node9" class="node">
<title>ndMerkleTreeMaker</title>
<g id="a_node9_10"><a xlink:href="https://github.com/Neptune-Crypto/twenty-first/blob/master/src/util_types/merkle_tree_maker.rs#:~:text=trait%20MerkleTreeMaker" xlink:title="&lt;TABLE&gt;">
<polygon fill="lightgreen" stroke="transparent" points="1041.99,-585.5 1041.99,-622.5 1175.99,-622.5 1175.99,-585.5 1041.99,-585.5"/>
<polygon fill="none" stroke="black" points="1041.99,-585.5 1041.99,-622.5 1175.99,-622.5 1175.99,-585.5 1041.99,-585.5"/>
<text text-anchor="start" x="1052.99" y="-601.3" font-family="Arial" font-weight="bold" font-size="14.00">MerkleTreeMaker</text>
<polygon fill="none" stroke="black" points="1040.99,-585 1040.99,-624 1176.99,-624 1176.99,-585 1040.99,-585"/>
</a>
</g>
</g>
<!-- ndMmr -->
<g id="node10" class="node">
<title>ndMmr</title>
<g id="a_node10_11"><a xlink:href="https://github.com/Neptune-Crypto/twenty-first/blob/master/src/util_types/mmr/mmr_trait.rs#:~:text=trait%20Mmr" xlink:title="&lt;TABLE&gt;">
<polygon fill="lightgreen" stroke="transparent" points="701.99,-253.5 701.99,-290.5 754.99,-290.5 754.99,-253.5 701.99,-253.5"/>
<polygon fill="none" stroke="black" points="701.99,-253.5 701.99,-290.5 754.99,-290.5 754.99,-253.5 701.99,-253.5"/>
<text text-anchor="start" x="712.99" y="-269.3" font-family="Arial" font-weight="bold" font-size="14.00">Mmr</text>
<polygon fill="none" stroke="black" points="700.49,-253 700.49,-292 755.49,-292 755.49,-253 700.49,-253"/>
</a>
</g>
</g>
<!-- ndMmrAccumulator -->
<g id="node11" class="node">
<title>ndMmrAccumulator</title>
<g id="a_node11_12"><a xlink:href="https://github.com/Neptune-Crypto/twenty-first/blob/master/src/util_types/mmr/mmr_accumulator.rs#:~:text=struct%20MmrAccumulator" xlink:title="&lt;TABLE&gt;">
<polygon fill="lightblue" stroke="transparent" points="410.99,-170.5 410.99,-207.5 546.99,-207.5 546.99,-170.5 410.99,-170.5"/>
<polygon fill="none" stroke="black" points="410.99,-170.5 410.99,-207.5 546.99,-207.5 546.99,-170.5 410.99,-170.5"/>
<text text-anchor="start" x="421.99" y="-186.3" font-family="Arial" font-weight="bold" font-size="14.00">MmrAccumulator</text>
<polygon fill="none" stroke="black" points="409.99,-170 409.99,-209 547.99,-209 547.99,-170 409.99,-170"/>
</a>
</g>
</g>
<!-- ndMmr&#45;&gt;ndMmrAccumulator -->
<g id="edge7" class="edge">
<title>ndMmr&#45;&gt;ndMmrAccumulator</title>
<path fill="none" stroke="black" stroke-dasharray="5,2" d="M692.24,-252.5C689.48,-251.25 686.71,-250.07 683.99,-249 646.06,-234.05 602.82,-221.14 565.85,-211.27"/>
<polygon fill="none" stroke="black" points="566.67,-207.87 556.1,-208.7 564.88,-214.64 566.67,-207.87"/>
</g>
<!-- ndMockMmr -->
<g id="node18" class="node">
<title>ndMockMmr</title>
<g id="a_node18_13"><a xlink:href="https://github.com/Neptune-Crypto/twenty-first/blob/master/src/mock/mmr/mock_mmr.rs#:~:text=struct%20MockMmr" xlink:title="&lt;TABLE&gt;">
<polygon fill="lightblue" stroke="transparent" points="327.99,-87.5 327.99,-124.5 415.99,-124.5 415.99,-87.5 327.99,-87.5"/>
<polygon fill="none" stroke="black" points="327.99,-87.5 327.99,-124.5 415.99,-124.5 415.99,-87.5 327.99,-87.5"/>
<text text-anchor="start" x="338.99" y="-103.3" font-family="Arial" font-weight="bold" font-size="14.00">MockMmr</text>
<polygon fill="none" stroke="black" points="326.99,-87 326.99,-126 416.99,-126 416.99,-87 326.99,-87"/>
</a>
</g>
</g>
<!-- ndMmr&#45;&gt;ndMockMmr -->
<g id="edge8" class="edge">
<title>ndMmr&#45;&gt;ndMockMmr</title>
<path fill="none" stroke="black" stroke-dasharray="5,2" d="M692.03,-252.98C689.31,-251.62 686.61,-250.28 683.99,-249 650.06,-232.4 637.31,-235.54 606.99,-213 584.51,-196.28 588.61,-181.07 564.99,-166 525.54,-140.83 474.67,-125.99 435.06,-117.56"/>
<polygon fill="none" stroke="black" points="435.74,-114.13 425.24,-115.56 434.34,-120.99 435.74,-114.13"/>
</g>
<!-- ndMmrAccumulator&#45;&gt;ndMockMmr -->
<g id="edge9" class="edge">
<title>ndMmrAccumulator&#45;&gt;ndMockMmr</title>
<path fill="none" stroke="black" d="M449.19,-165.94C437.12,-156.8 423.03,-146.13 410.21,-136.43"/>
<polygon fill="black" stroke="black" points="402.01,-130.22 412.7,-132.67 406,-133.24 409.98,-136.26 409.98,-136.26 409.98,-136.26 406,-133.24 407.27,-139.85 402.01,-130.22 402.01,-130.22"/>
</g>
<!-- ndMmrMembershipProof -->
<g id="node12" class="node">
<title>ndMmrMembershipProof</title>
<g id="a_node12_14"><a xlink:href="https://github.com/Neptune-Crypto/twenty-first/blob/master/src/util_types/mmr/mmr_membership_proof.rs#:~:text=struct%20MmrMembershipProof" xlink:title="&lt;TABLE&gt;">
<polygon fill="lightblue" stroke="transparent" points="287.99,-253.5 287.99,-290.5 456.99,-290.5 456.99,-253.5 287.99,-253.5"/>
<polygon fill="none" stroke="black" points="287.99,-253.5 287.99,-290.5 456.99,-290.5 456.99,-253.5 287.99,-253.5"/>
<text text-anchor="start" x="298.99" y="-269.3" font-family="Arial" font-weight="bold" font-size="14.00">MmrMembershipProof</text>
<polygon fill="none" stroke="black" points="286.49,-253 286.49,-292 457.49,-292 457.49,-253 286.49,-253"/>
</a>
</g>
</g>
<!-- ndMmrMembershipProof&#45;&gt;ndMmrAccumulator -->
<g id="edge10" class="edge">
<title>ndMmrMembershipProof&#45;&gt;ndMmrAccumulator</title>
<path fill="none" stroke="black" d="M401.8,-248.94C413.87,-239.8 427.96,-229.13 440.77,-219.43"/>
<polygon fill="black" stroke="black" points="448.98,-213.22 443.72,-222.85 444.99,-216.24 441,-219.26 441,-219.26 441,-219.26 444.99,-216.24 438.29,-215.67 448.98,-213.22 448.98,-213.22"/>
</g>
<!-- ndMmrMembershipProof&#45;&gt;ndMockMmr -->
<g id="edge11" class="edge">
<title>ndMmrMembershipProof&#45;&gt;ndMockMmr</title>
<path fill="none" stroke="black" d="M371.99,-248.7C371.99,-220.55 371.99,-172.47 371.99,-140.34"/>
<polygon fill="black" stroke="black" points="371.99,-130.11 376.49,-140.11 371.99,-135.11 371.99,-140.11 371.99,-140.11 371.99,-140.11 371.99,-135.11 367.49,-140.11 371.99,-130.11 371.99,-130.11"/>
</g>
<!-- ndMerkleTree -->
<g id="node13" class="node">
<title>ndMerkleTree</title>
<g id="a_node13_15"><a xlink:href="https://github.com/Neptune-Crypto/twenty-first/blob/master/src/util_types/merkle_tree.rs#:~:text=struct%20MerkleTree" xlink:title="&lt;TABLE&gt;">
<polygon fill="lightblue" stroke="transparent" points="126.99,-170.5 126.99,-207.5 220.99,-207.5 220.99,-170.5 126.99,-170.5"/>
<polygon fill="none" stroke="black" points="126.99,-170.5 126.99,-207.5 220.99,-207.5 220.99,-170.5 126.99,-170.5"/>
<text text-anchor="start" x="137.99" y="-186.3" font-family="Arial" font-weight="bold" font-size="14.00">MerkleTree</text>
<polygon fill="none" stroke="black" points="125.99,-170 125.99,-209 221.99,-209 221.99,-170 125.99,-170"/>
</a>
</g>
</g>
<!-- ndMerkleTreeInclusionProof -->
<g id="node14" class="node">
<title>ndMerkleTreeInclusionProof</title>
<g id="a_node14_16"><a xlink:href="https://github.com/Neptune-Crypto/twenty-first/blob/master/src/util_types/merkle_tree.rs#:~:text=struct%20MerkleTreeInclusionProof" xlink:title="&lt;TABLE&gt;">
<polygon fill="lightblue" stroke="transparent" points="62.99,-253.5 62.99,-290.5 250.99,-290.5 250.99,-253.5 62.99,-253.5"/>
<polygon fill="none" stroke="black" points="62.99,-253.5 62.99,-290.5 250.99,-290.5 250.99,-253.5 62.99,-253.5"/>
<text text-anchor="start" x="73.99" y="-269.3" font-family="Arial" font-weight="bold" font-size="14.00">MerkleTreeInclusionProof</text>
<polygon fill="none" stroke="black" points="61.99,-253 61.99,-292 251.99,-292 251.99,-253 61.99,-253"/>
</a>
</g>
</g>
<!-- ndMerkleTreeInclusionProof&#45;&gt;ndMerkleTree -->
<g id="edge12" class="edge">
<title>ndMerkleTreeInclusionProof&#45;&gt;ndMerkleTree</title>
<path fill="none" stroke="black" d="M161.73,-248.94C163.41,-240.93 165.34,-231.75 167.16,-223.07"/>
<polygon fill="black" stroke="black" points="169.22,-213.22 171.57,-223.93 168.2,-218.12 167.17,-223.01 167.17,-223.01 167.17,-223.01 168.2,-218.12 162.77,-222.09 169.22,-213.22 169.22,-213.22"/>
</g>
<!-- ndPartialMerkleTree -->
<g id="node15" class="node">
<title>ndPartialMerkleTree</title>
<g id="a_node15_17"><a xlink:href="https://github.com/Neptune-Crypto/twenty-first/blob/master/src/util_types/merkle_tree.rs#:~:text=struct%20PartialMerkleTree" xlink:title="&lt;TABLE&gt;">
<polygon fill="lightblue" stroke="transparent" points="530.99,-253.5 530.99,-290.5 665.99,-290.5 665.99,-253.5 530.99,-253.5"/>
<polygon fill="none" stroke="black" points="530.99,-253.5 530.99,-290.5 665.99,-290.5 665.99,-253.5 530.99,-253.5"/>
<text text-anchor="start" x="541.99" y="-269.3" font-family="Arial" font-weight="bold" font-size="14.00">PartialMerkleTree</text>
<polygon fill="none" stroke="black" points="529.49,-253 529.49,-292 666.49,-292 666.49,-253 529.49,-253"/>
</a>
</g>
</g>
<!-- ndMerkleTreeError -->
<g id="node16" class="node">
<title>ndMerkleTreeError</title>
<g id="a_node16_18"><a xlink:href="https://github.com/Neptune-Crypto/twenty-first/blob/master/src/util_types/merkle_tree.rs#:~:text=enum%20MerkleTreeError" xlink:title="&lt;TABLE&gt;">
<polygon fill="yellow" stroke="transparent" points="1212.99,-585.5 1212.99,-622.5 1339.99,-622.5 1339.99,-585.5 1212.99,-585.5"/>
<polygon fill="none" stroke="black" points="1212.99,-585.5 1212.99,-622.5 1339.99,-622.5 1339.99,-585.5 1212.99,-585.5"/>
<text text-anchor="start" x="1223.99" y="-601.3" font-family="Arial" font-weight="bold" font-size="14.00">MerkleTreeError</text>
<polygon fill="none" stroke="black" points="1211.49,-585 1211.49,-624 1340.49,-624 1340.49,-585 1211.49,-585"/>
</a>
</g>
</g>
<!-- ndNode -->
<g id="node17" class="node">
<title>ndNode</title>
<g id="a_node17_19"><a xlink:href="https://github.com/Neptune-Crypto/twenty-first/blob/master/src/util_types/tree_m_ary.rs#:~:text=struct%20Node" xlink:title="&lt;TABLE&gt;">
<polygon fill="lightblue" stroke="transparent" points="1375.99,-585.5 1375.99,-622.5 1431.99,-622.5 1431.99,-585.5 1375.99,-585.5"/>
<polygon fill="none" stroke="black" points="1375.99,-585.5 1375.99,-622.5 1431.99,-622.5 1431.99,-585.5 1375.99,-585.5"/>
<text text-anchor="start" x="1386.99" y="-601.3" font-family="Arial" font-weight="bold" font-size="14.00">Node</text>
<polygon fill="none" stroke="black" points="1374.99,-585 1374.99,-624 1432.99,-624 1432.99,-585 1374.99,-585"/>
</a>
</g>
</g>
<!-- ndMyVec -->
<g id="node19" class="node">
<title>ndMyVec</title>
<g id="a_node19_20"><a xlink:href="https://github.com/Neptune-Crypto/twenty-first/blob/master/src/mock/mmr/mock_mmr.rs#:~:text=struct%20MyVec" xlink:title="&lt;TABLE&gt;">
<polygon fill="lightblue" stroke="transparent" points="25.99,-170.5 25.99,-207.5 90.99,-207.5 90.99,-170.5 25.99,-170.5"/>
<polygon fill="none" stroke="black" points="25.99,-170.5 25.99,-207.5 90.99,-207.5 90.99,-170.5 25.99,-170.5"/>
<text text-anchor="start" x="36.99" y="-186.3" font-family="Arial" font-weight="bold" font-size="14.00">MyVec</text>
<polygon fill="none" stroke="black" points="24.49,-170 24.49,-209 91.49,-209 91.49,-170 24.49,-170"/>
</a>
</g>
</g>
<!-- ndMyVec&#45;&gt;ndMockMmr -->
<g id="edge13" class="edge">
<title>ndMyVec&#45;&gt;ndMockMmr</title>
<path fill="none" stroke="black" d="M99.76,-169.29C102.86,-168.11 105.96,-167 108.99,-166 174.96,-144.34 252.85,-128.13 306.66,-118.34"/>
<polygon fill="black" stroke="black" points="306.97,-118.28 312.17,-113.28 318.78,-116.16 313.58,-121.16 306.97,-118.28"/>
</g>
<!-- ndCyclicGroupGenerator -->
<g id="node20" class="node">
<title>ndCyclicGroupGenerator</title>
<g id="a_node20_21"><a xlink:href="https://github.com/Neptune-Crypto/twenty-first/blob/master/src/math/traits.rs#:~:text=trait%20CyclicGroupGenerator" xlink:title="&lt;TABLE&gt;">
<polygon fill="lightgreen" stroke="transparent" points="1104.99,-336.5 1104.99,-373.5 1273.99,-373.5 1273.99,-336.5 1104.99,-336.5"/>
<polygon fill="none" stroke="black" points="1104.99,-336.5 1104.99,-373.5 1273.99,-373.5 1273.99,-336.5 1104.99,-336.5"/>
<text text-anchor="start" x="1115.99" y="-352.3" font-family="Arial" font-weight="bold" font-size="14.00">CyclicGroupGenerator</text>
<polygon fill="none" stroke="black" points="1103.49,-336 1103.49,-375 1274.49,-375 1274.49,-336 1103.49,-336"/>
</a>
</g>
</g>
<!-- ndBFieldElement -->
<g id="node32" class="node">
<title>ndBFieldElement</title>
<g id="a_node32_22"><a xlink:href="https://github.com/Neptune-Crypto/twenty-first/blob/master/src/math/b_field_element.rs#:~:text=struct%20BFieldElement" xlink:title="&lt;TABLE&gt;">
<polygon fill="lightblue" stroke="transparent" points="1047.99,-170.5 1047.99,-207.5 1164.99,-207.5 1164.99,-170.5 1047.99,-170.5"/>
<polygon fill="none" stroke="black" points="1047.99,-170.5 1047.99,-207.5 1164.99,-207.5 1164.99,-170.5 1047.99,-170.5"/>
<text text-anchor="start" x="1058.99" y="-186.3" font-family="Arial" font-weight="bold" font-size="14.00">BFieldElement</text>
<polygon fill="none" stroke="black" points="1046.49,-170 1046.49,-209 1165.49,-209 1165.49,-170 1046.49,-170"/>
</a>
</g>
</g>
<!-- ndCyclicGroupGenerator&#45;&gt;ndBFieldElement -->
<g id="edge14" class="edge">
<title>ndCyclicGroupGenerator&#45;&gt;ndBFieldElement</title>
<path fill="none" stroke="black" stroke-dasharray="5,2" d="M1192.66,-331.63C1195.11,-309.21 1195.74,-274.75 1181.99,-249 1175.87,-237.53 1166.4,-227.61 1156.21,-219.36"/>
<polygon fill="none" stroke="black" points="1158.01,-216.34 1147.92,-213.11 1153.8,-221.93 1158.01,-216.34"/>
</g>
<!-- ndXFieldElement -->
<g id="node33" class="node">
<title>ndXFieldElement</title>
<g id="a_node33_23"><a xlink:href="https://github.com/Neptune-Crypto/twenty-first/blob/master/src/math/x_field_element.rs#:~:text=struct%20XFieldElement" xlink:title="&lt;TABLE&gt;">
<polygon fill="lightblue" stroke="transparent" points="1047.99,-253.5 1047.99,-290.5 1163.99,-290.5 1163.99,-253.5 1047.99,-253.5"/>
<polygon fill="none" stroke="black" points="1047.99,-253.5 1047.99,-290.5 1163.99,-290.5 1163.99,-253.5 1047.99,-253.5"/>
<text text-anchor="start" x="1058.99" y="-269.3" font-family="Arial" font-weight="bold" font-size="14.00">XFieldElement</text>
<polygon fill="none" stroke="black" points="1046.99,-253 1046.99,-292 1164.99,-292 1164.99,-253 1046.99,-253"/>
</a>
</g>
</g>
<!-- ndCyclicGroupGenerator&#45;&gt;ndXFieldElement -->
<g id="edge15" class="edge">
<title>ndCyclicGroupGenerator&#45;&gt;ndXFieldElement</title>
<path fill="none" stroke="black" stroke-dasharray="5,2" d="M1165.87,-331.94C1156.78,-323.06 1146.2,-312.74 1136.49,-303.27"/>
<polygon fill="none" stroke="black" points="1138.88,-300.7 1129.28,-296.22 1133.99,-305.71 1138.88,-300.7"/>
</g>
<!-- ndInverse -->
<g id="node21" class="node">
<title>ndInverse</title>
<g id="a_node21_24"><a xlink:href="https://github.com/Neptune-Crypto/twenty-first/blob/master/src/math/traits.rs#:~:text=trait%20Inverse" xlink:title="&lt;TABLE&gt;">
<polygon fill="lightgreen" stroke="transparent" points="1308.99,-336.5 1308.99,-373.5 1378.99,-373.5 1378.99,-336.5 1308.99,-336.5"/>
<polygon fill="none" stroke="black" points="1308.99,-336.5 1308.99,-373.5 1378.99,-373.5 1378.99,-336.5 1308.99,-336.5"/>
<text text-anchor="start" x="1319.99" y="-352.3" font-family="Arial" font-weight="bold" font-size="14.00">Inverse</text>
<polygon fill="none" stroke="black" points="1307.99,-336 1307.99,-375 1379.99,-375 1379.99,-336 1307.99,-336"/>
</a>
</g>
</g>
<!-- ndInverse&#45;&gt;ndBFieldElement -->
<g id="edge16" class="edge">
<title>ndInverse&#45;&gt;ndBFieldElement</title>
<path fill="none" stroke="black" stroke-dasharray="5,2" d="M1314.93,-331.95C1286.4,-310.07 1241.4,-276.27 1200.99,-249 1185.69,-238.67 1168.62,-227.93 1153.21,-218.51"/>
<polygon fill="none" stroke="black" points="1154.73,-215.33 1144.36,-213.13 1151.09,-221.31 1154.73,-215.33"/>
</g>
<!-- ndInverse&#45;&gt;ndXFieldElement -->
<g id="edge17" class="edge">
<title>ndInverse&#45;&gt;ndXFieldElement</title>
<path fill="none" stroke="black" stroke-dasharray="5,2" d="M1299.87,-335.04C1297.21,-333.98 1294.57,-332.96 1291.99,-332 1256.62,-318.83 1216.78,-306.03 1183.07,-295.78"/>
<polygon fill="none" stroke="black" points="1183.87,-292.37 1173.28,-292.83 1181.84,-299.07 1183.87,-292.37"/>
</g>
<!-- ndPrimitiveRootOfUnity -->
<g id="node22" class="node">
<title>ndPrimitiveRootOfUnity</title>
<g id="a_node22_25"><a xlink:href="https://github.com/Neptune-Crypto/twenty-first/blob/master/src/math/traits.rs#:~:text=trait%20PrimitiveRootOfUnity" xlink:title="&lt;TABLE&gt;">
<polygon fill="lightgreen" stroke="transparent" points="1415.99,-336.5 1415.99,-373.5 1576.99,-373.5 1576.99,-336.5 1415.99,-336.5"/>
<polygon fill="none" stroke="black" points="1415.99,-336.5 1415.99,-373.5 1576.99,-373.5 1576.99,-336.5 1415.99,-336.5"/>
<text text-anchor="start" x="1426.99" y="-352.3" font-family="Arial" font-weight="bold" font-size="14.00">PrimitiveRootOfUnity</text>
<polygon fill="none" stroke="black" points="1414.49,-336 1414.49,-375 1577.49,-375 1577.49,-336 1414.49,-336"/>
</a>
</g>
</g>
<!-- ndPrimitiveRootOfUnity&#45;&gt;ndBFieldElement -->
<g id="edge18" class="edge">
<title>ndPrimitiveRootOfUnity&#45;&gt;ndBFieldElement</title>
<path fill="none" stroke="black" stroke-dasharray="5,2" d="M1442.37,-331.81C1391.76,-310.41 1313.75,-277.45 1245.99,-249 1221.01,-238.51 1193.51,-227.01 1169.54,-217"/>
<polygon fill="none" stroke="black" points="1170.77,-213.72 1160.2,-213.1 1168.08,-220.18 1170.77,-213.72"/>
</g>
<!-- ndPrimitiveRootOfUnity&#45;&gt;ndXFieldElement -->
<g id="edge19" class="edge">
<title>ndPrimitiveRootOfUnity&#45;&gt;ndXFieldElement</title>
<path fill="none" stroke="black" stroke-dasharray="5,2" d="M1406.44,-334.04C1403.25,-333.35 1400.1,-332.66 1396.99,-332 1324.59,-316.5 1241.79,-299.97 1183.07,-288.45"/>
<polygon fill="none" stroke="black" points="1183.62,-284.99 1173.13,-286.5 1182.27,-291.86 1183.62,-284.99"/>
</g>
<!-- ndModPowU64 -->
<g id="node23" class="node">
<title>ndModPowU64</title>
<g id="a_node23_26"><a xlink:href="https://github.com/Neptune-Crypto/twenty-first/blob/master/src/math/traits.rs#:~:text=trait%20ModPowU64" xlink:title="&lt;TABLE&gt;">
<polygon fill="lightgreen" stroke="transparent" points="697.99,-336.5 697.99,-373.5 801.99,-373.5 801.99,-336.5 697.99,-336.5"/>
<polygon fill="none" stroke="black" points="697.99,-336.5 697.99,-373.5 801.99,-373.5 801.99,-336.5 697.99,-336.5"/>
<text text-anchor="start" x="708.99" y="-352.3" font-family="Arial" font-weight="bold" font-size="14.00">ModPowU64</text>
<polygon fill="none" stroke="black" points="696.99,-336 696.99,-375 802.99,-375 802.99,-336 696.99,-336"/>
</a>
</g>
</g>
<!-- ndModPowU64&#45;&gt;ndBFieldElement -->
<g id="edge20" class="edge">
<title>ndModPowU64&#45;&gt;ndBFieldElement</title>
<path fill="none" stroke="black" stroke-dasharray="5,2" d="M790.37,-331.94C831.07,-309.61 895.98,-275.07 953.99,-249 979.49,-237.54 1007.97,-226.21 1033.32,-216.61"/>
<polygon fill="none" stroke="black" points="1034.74,-219.82 1042.87,-213.02 1032.27,-213.26 1034.74,-219.82"/>
</g>
<!-- ndModPowU64&#45;&gt;ndXFieldElement -->
<g id="edge21" class="edge">
<title>ndModPowU64&#45;&gt;ndXFieldElement</title>
<path fill="none" stroke="black" stroke-dasharray="5,2" d="M811.34,-334.36C814.26,-333.54 817.15,-332.74 819.99,-332 889.94,-313.66 970.76,-297.59 1028.61,-286.96"/>
<polygon fill="none" stroke="black" points="1029.56,-290.34 1038.77,-285.1 1028.3,-283.46 1029.56,-290.34"/>
</g>
<!-- ndModPowU32 -->
<g id="node24" class="node">
<title>ndModPowU32</title>
<g id="a_node24_27"><a xlink:href="https://github.com/Neptune-Crypto/twenty-first/blob/master/src/math/traits.rs#:~:text=trait%20ModPowU32" xlink:title="&lt;TABLE&gt;">
<polygon fill="lightgreen" stroke="transparent" points="837.99,-336.5 837.99,-373.5 941.99,-373.5 941.99,-336.5 837.99,-336.5"/>
<polygon fill="none" stroke="black" points="837.99,-336.5 837.99,-373.5 941.99,-373.5 941.99,-336.5 837.99,-336.5"/>
<text text-anchor="start" x="848.99" y="-352.3" font-family="Arial" font-weight="bold" font-size="14.00">ModPowU32</text>
<polygon fill="none" stroke="black" points="836.99,-336 836.99,-375 942.99,-375 942.99,-336 836.99,-336"/>
</a>
</g>
</g>
<!-- ndModPowU32&#45;&gt;ndBFieldElement -->
<g id="edge22" class="edge">
<title>ndModPowU32&#45;&gt;ndBFieldElement</title>
<path fill="none" stroke="black" stroke-dasharray="5,2" d="M914.8,-331.61C939.25,-309.49 978.06,-275.51 1013.99,-249 1028.25,-238.48 1044.39,-227.83 1059.12,-218.55"/>
<polygon fill="none" stroke="black" points="1060.97,-221.52 1067.61,-213.26 1057.27,-215.58 1060.97,-221.52"/>
</g>
<!-- ndModPowU32&#45;&gt;ndXFieldElement -->
<g id="edge23" class="edge">
<title>ndModPowU32&#45;&gt;ndXFieldElement</title>
<path fill="none" stroke="black" stroke-dasharray="5,2" d="M950.16,-331.94C976.85,-321.93 1008.42,-310.09 1036.14,-299.69"/>
<polygon fill="none" stroke="black" points="1037.64,-302.87 1045.77,-296.08 1035.18,-296.32 1037.64,-302.87"/>
</g>
<!-- ndFiniteField -->
<g id="node25" class="node">
<title>ndFiniteField</title>
<g id="a_node25_28"><a xlink:href="https://github.com/Neptune-Crypto/twenty-first/blob/master/src/math/traits.rs#:~:text=trait%20FiniteField" xlink:title="&lt;TABLE&gt;">
<polygon fill="lightgreen" stroke="transparent" points="977.99,-336.5 977.99,-373.5 1067.99,-373.5 1067.99,-336.5 977.99,-336.5"/>
<polygon fill="none" stroke="black" points="977.99,-336.5 977.99,-373.5 1067.99,-373.5 1067.99,-336.5 977.99,-336.5"/>
<text text-anchor="start" x="988.99" y="-352.3" font-family="Arial" font-weight="bold" font-size="14.00">FiniteField</text>
<polygon fill="none" stroke="black" points="976.99,-336 976.99,-375 1068.99,-375 1068.99,-336 976.99,-336"/>
</a>
</g>
</g>
<!-- ndFiniteField&#45;&gt;ndBFieldElement -->
<g id="edge24" class="edge">
<title>ndFiniteField&#45;&gt;ndBFieldElement</title>
<path fill="none" stroke="black" stroke-dasharray="5,2" d="M1019.32,-331.63C1016.87,-309.21 1016.24,-274.75 1029.99,-249 1036.12,-237.53 1045.59,-227.61 1055.78,-219.36"/>
<polygon fill="none" stroke="black" points="1058.19,-221.93 1064.06,-213.11 1053.97,-216.34 1058.19,-221.93"/>
</g>
<!-- ndFiniteField&#45;&gt;ndXFieldElement -->
<g id="edge25" class="edge">
<title>ndFiniteField&#45;&gt;ndXFieldElement</title>
<path fill="none" stroke="black" stroke-dasharray="5,2" d="M1046.11,-331.94C1055.21,-323.06 1065.78,-312.74 1075.49,-303.27"/>
<polygon fill="none" stroke="black" points="1078,-305.71 1082.71,-296.22 1073.11,-300.7 1078,-305.71"/>
</g>
<!-- ndPolynomial -->
<g id="node27" class="node">
<title>ndPolynomial</title>
<g id="a_node27_29"><a xlink:href="https://github.com/Neptune-Crypto/twenty-first/blob/master/src/math/polynomial.rs#:~:text=struct%20Polynomial" xlink:title="&lt;TABLE&gt;">
<polygon fill="lightblue" stroke="transparent" points="1163.99,-87.5 1163.99,-124.5 1258.99,-124.5 1258.99,-87.5 1163.99,-87.5"/>
<polygon fill="none" stroke="black" points="1163.99,-87.5 1163.99,-124.5 1258.99,-124.5 1258.99,-87.5 1163.99,-87.5"/>
<text text-anchor="start" x="1174.99" y="-103.3" font-family="Arial" font-weight="bold" font-size="14.00">Polynomial</text>
<polygon fill="none" stroke="black" points="1162.49,-87 1162.49,-126 1259.49,-126 1259.49,-87 1162.49,-87"/>
</a>
</g>
</g>
<!-- ndPolynomial&#45;&gt;ndXFieldElement -->
<g id="edge26" class="edge">
<title>ndPolynomial&#45;&gt;ndXFieldElement</title>
<path fill="none" stroke="black" d="M1216.06,-130.25C1215.59,-152.9 1208.87,-187.81 1191.99,-213 1184.32,-224.45 1173.66,-234.57 1162.41,-243.04"/>
<polygon fill="black" stroke="black" points="1154.15,-248.91 1159.69,-239.45 1158.22,-246.01 1162.3,-243.11 1162.3,-243.11 1162.3,-243.11 1158.22,-246.01 1164.9,-246.78 1154.15,-248.91 1154.15,-248.91"/>
</g>
<!-- ndBFieldCodec -->
<g id="node28" class="node">
<title>ndBFieldCodec</title>
<g id="a_node28_30"><a xlink:href="https://github.com/Neptune-Crypto/twenty-first/blob/master/src/math/bfield_codec.rs#:~:text=trait%20BFieldCodec" xlink:title="&lt;TABLE&gt;">
<polygon fill="lightgreen" stroke="transparent" points="1269.99,-170.5 1269.99,-207.5 1374.99,-207.5 1374.99,-170.5 1269.99,-170.5"/>
<polygon fill="none" stroke="black" points="1269.99,-170.5 1269.99,-207.5 1374.99,-207.5 1374.99,-170.5 1269.99,-170.5"/>
<text text-anchor="start" x="1280.99" y="-186.3" font-family="Arial" font-weight="bold" font-size="14.00">BFieldCodec</text>
<polygon fill="none" stroke="black" points="1268.49,-170 1268.49,-209 1375.49,-209 1375.49,-170 1268.49,-170"/>
</a>
</g>
</g>
<!-- ndU32s -->
<g id="node35" class="node">
<title>ndU32s</title>
<g id="a_node35_31"><a xlink:href="https://github.com/Neptune-Crypto/twenty-first/blob/master/src/amount/u32s.rs#:~:text=struct%20U32s" xlink:title="&lt;TABLE&gt;">
<polygon fill="lightblue" stroke="transparent" points="1294.99,-87.5 1294.99,-124.5 1349.99,-124.5 1349.99,-87.5 1294.99,-87.5"/>
<polygon fill="none" stroke="black" points="1294.99,-87.5 1294.99,-124.5 1349.99,-124.5 1349.99,-87.5 1294.99,-87.5"/>
<text text-anchor="start" x="1305.99" y="-103.3" font-family="Arial" font-weight="bold" font-size="14.00">U32s</text>
<polygon fill="none" stroke="black" points="1293.49,-87 1293.49,-126 1350.49,-126 1350.49,-87 1293.49,-87"/>
</a>
</g>
</g>
<!-- ndBFieldCodec&#45;&gt;ndU32s -->
<g id="edge27" class="edge">
<title>ndBFieldCodec&#45;&gt;ndU32s</title>
<path fill="none" stroke="black" stroke-dasharray="5,2" d="M1321.99,-165.94C1321.99,-158.02 1321.99,-148.95 1321.99,-140.36"/>
<polygon fill="none" stroke="black" points="1325.49,-140.22 1321.99,-130.22 1318.49,-140.22 1325.49,-140.22"/>
</g>
<!-- ndBFieldCodecError -->
<g id="node29" class="node">
<title>ndBFieldCodecError</title>
<g id="a_node29_32"><a xlink:href="https://github.com/Neptune-Crypto/twenty-first/blob/master/src/math/bfield_codec.rs#:~:text=enum%20BFieldCodecError" xlink:title="&lt;TABLE&gt;">
<polygon fill="yellow" stroke="transparent" points="1467.99,-585.5 1467.99,-622.5 1605.99,-622.5 1605.99,-585.5 1467.99,-585.5"/>
<polygon fill="none" stroke="black" points="1467.99,-585.5 1467.99,-622.5 1605.99,-622.5 1605.99,-585.5 1467.99,-585.5"/>
<text text-anchor="start" x="1478.99" y="-601.3" font-family="Arial" font-weight="bold" font-size="14.00">BFieldCodecError</text>
<polygon fill="none" stroke="black" points="1466.99,-585 1466.99,-624 1606.99,-624 1606.99,-585 1466.99,-585"/>
</a>
</g>
</g>
<!-- ndCyclotomicRingElement -->
<g id="node30" class="node">
<title>ndCyclotomicRingElement</title>
<g id="a_node30_33"><a xlink:href="https://github.com/Neptune-Crypto/twenty-first/blob/master/src/math/lattice.rs#:~:text=struct%20CyclotomicRingElement" xlink:title="&lt;TABLE&gt;">
<polygon fill="lightblue" stroke="transparent" points="948.99,-87.5 948.99,-124.5 1127.99,-124.5 1127.99,-87.5 948.99,-87.5"/>
<polygon fill="none" stroke="black" points="948.99,-87.5 948.99,-124.5 1127.99,-124.5 1127.99,-87.5 948.99,-87.5"/>
<text text-anchor="start" x="959.99" y="-103.3" font-family="Arial" font-weight="bold" font-size="14.00">CyclotomicRingElement</text>
<polygon fill="none" stroke="black" points="947.49,-87 947.49,-126 1128.49,-126 1128.49,-87 947.49,-87"/>
</a>
</g>
</g>
<!-- ndModuleElement -->
<g id="node31" class="node">
<title>ndModuleElement</title>
<g id="a_node31_34"><a xlink:href="https://github.com/Neptune-Crypto/twenty-first/blob/master/src/math/lattice.rs#:~:text=struct%20ModuleElement" xlink:title="&lt;TABLE&gt;">
<polygon fill="lightblue" stroke="transparent" points="975.99,-4.5 975.99,-41.5 1099.99,-41.5 1099.99,-4.5 975.99,-4.5"/>
<polygon fill="none" stroke="black" points="975.99,-4.5 975.99,-41.5 1099.99,-41.5 1099.99,-4.5 975.99,-4.5"/>
<text text-anchor="start" x="986.99" y="-20.3" font-family="Arial" font-weight="bold" font-size="14.00">ModuleElement</text>
<polygon fill="none" stroke="black" points="974.99,-4 974.99,-43 1100.99,-43 1100.99,-4 974.99,-4"/>
</a>
</g>
</g>
<!-- ndCyclotomicRingElement&#45;&gt;ndModuleElement -->
<g id="edge28" class="edge">
<title>ndCyclotomicRingElement&#45;&gt;ndModuleElement</title>
<path fill="none" stroke="black" d="M1037.99,-82.94C1037.99,-75.63 1037.99,-67.34 1037.99,-59.35"/>
<polygon fill="black" stroke="black" points="1037.99,-59.22 1033.99,-53.22 1037.99,-47.22 1041.99,-53.22 1037.99,-59.22"/>
</g>
<!-- ndBFieldElement&#45;&gt;ndTip5 -->
<g id="edge29" class="edge">
<title>ndBFieldElement&#45;&gt;ndTip5</title>
<path fill="none" stroke="black" stroke-dasharray="5,2" d="M1038.21,-166.03C1005.74,-155.22 966.32,-142.02 930.99,-130 924.7,-127.86 918.08,-125.59 911.56,-123.34"/>
<polygon fill="black" stroke="black" points="911.38,-123.28 904.41,-125.1 900.04,-119.36 907.02,-117.54 911.38,-123.28"/>
</g>
<!-- ndBFieldElement&#45;&gt;ndPolynomial -->
<g id="edge30" class="edge">
<title>ndBFieldElement&#45;&gt;ndPolynomial</title>
<path fill="none" stroke="black" stroke-dasharray="5,2" d="M1135.24,-165.94C1147.09,-156.8 1160.92,-146.13 1173.49,-136.43"/>
<polygon fill="black" stroke="black" points="1181.54,-130.22 1176.37,-139.89 1177.58,-133.28 1173.62,-136.33 1173.62,-136.33 1173.62,-136.33 1177.58,-133.28 1170.87,-132.77 1181.54,-130.22 1181.54,-130.22"/>
</g>
<!-- ndBFieldElement&#45;&gt;ndCyclotomicRingElement -->
<g id="edge31" class="edge">
<title>ndBFieldElement&#45;&gt;ndCyclotomicRingElement</title>
<path fill="none" stroke="black" d="M1087.05,-165.94C1080.18,-157.76 1072.29,-148.35 1064.87,-139.51"/>
<polygon fill="black" stroke="black" points="1064.79,-139.41 1057.86,-137.39 1057.07,-130.22 1063.99,-132.25 1064.79,-139.41"/>
</g>
<!-- ndBFieldElement&#45;&gt;ndXFieldElement -->
<g id="edge32" class="edge">
<title>ndBFieldElement&#45;&gt;ndXFieldElement</title>
<path fill="none" stroke="black" stroke-dasharray="5,2" d="M1112.13,-213.22C1112.67,-220.55 1112.85,-228.84 1112.68,-236.83"/>
<polygon fill="black" stroke="black" points="1112.68,-236.95 1116.39,-243.13 1112.12,-248.94 1108.4,-242.76 1112.68,-236.95"/>
</g>
<!-- ndBFieldElement&#45;&gt;ndDigest -->
<g id="edge33" class="edge">
<title>ndBFieldElement&#45;&gt;ndDigest</title>
<path fill="none" stroke="black" d="M1038.47,-210.57C1035.27,-211.42 1032.1,-212.23 1028.99,-213 951.5,-232.21 923.31,-211.17 852.99,-249 826.98,-263 832.13,-282.23 805.99,-296 761.75,-319.32 623.7,-338.9 546.54,-348.37"/>
<polygon fill="black" stroke="black" points="546.16,-348.42 540.69,-353.11 534.25,-349.86 539.73,-345.17 546.16,-348.42"/>
</g>
<!-- ndBFieldElement&#45;&gt;ndU32s -->
<g id="edge34" class="edge">
<title>ndBFieldElement&#45;&gt;ndU32s</title>
<path fill="none" stroke="black" d="M1173.77,-167.63C1203.14,-158.04 1237.95,-145.95 1276.1,-130.19"/>
<polygon fill="black" stroke="black" points="1285.34,-126.33 1277.85,-134.34 1280.73,-128.26 1276.12,-130.18 1276.12,-130.18 1276.12,-130.18 1280.73,-128.26 1274.38,-126.03 1285.34,-126.33 1285.34,-126.33"/>
</g>
<!-- ndXFieldElement&#45;&gt;ndPolynomial -->
<g id="edge35" class="edge">
<title>ndXFieldElement&#45;&gt;ndPolynomial</title>
<path fill="none" stroke="black" stroke-dasharray="5,2" d="M1137.28,-248.91C1150.3,-239.4 1164.46,-227.23 1173.99,-213 1188.56,-191.25 1195.56,-162.26 1200.33,-140.17"/>
<polygon fill="black" stroke="black" points="1202.45,-130.25 1204.76,-140.97 1201.41,-135.14 1200.36,-140.03 1200.36,-140.03 1200.36,-140.03 1201.41,-135.14 1195.96,-139.09 1202.45,-130.25 1202.45,-130.25"/>
</g>
<!-- ndXFieldElement&#45;&gt;ndBFieldElement -->
<g id="edge36" class="edge">
<title>ndXFieldElement&#45;&gt;ndBFieldElement</title>
<path fill="none" stroke="black" stroke-dasharray="5,2" d="M1099.87,-248.94C1099.28,-241.02 1099.11,-231.95 1099.35,-223.36"/>
<polygon fill="black" stroke="black" points="1099.86,-213.22 1103.85,-223.44 1099.61,-218.22 1099.36,-223.21 1099.36,-223.21 1099.36,-223.21 1099.61,-218.22 1094.86,-222.99 1099.86,-213.22 1099.86,-213.22"/>
</g>
<!-- ndDigest&#45;&gt;ndMmrAccumulator -->
<g id="edge37" class="edge">
<title>ndDigest&#45;&gt;ndMmrAccumulator</title>
<path fill="none" stroke="black" stroke-dasharray="5,2" d="M491.05,-331.7C488.7,-304.16 484.72,-257.55 481.98,-225.46"/>
<polygon fill="black" stroke="black" points="481.94,-225.07 477.45,-219.43 480.92,-213.11 485.42,-218.75 481.94,-225.07"/>
</g>
<!-- ndDigest&#45;&gt;ndMmrMembershipProof -->
<g id="edge38" class="edge">
<title>ndDigest&#45;&gt;ndMmrMembershipProof</title>
<path fill="none" stroke="black" stroke-dasharray="5,2" d="M459.29,-331.94C445.9,-322.97 430.31,-312.54 416.04,-302.99"/>
<polygon fill="black" stroke="black" points="415.91,-302.9 408.7,-302.88 405.94,-296.22 413.15,-296.24 415.91,-302.9"/>
</g>
<!-- ndDigest&#45;&gt;ndMerkleTree -->
<g id="edge39" class="edge">
<title>ndDigest&#45;&gt;ndMerkleTree</title>
<path fill="none" stroke="black" d="M451.83,-352.17C346.16,-345.79 71.68,-326.39 44.99,-296 31.21,-280.3 33.68,-266.56 44.99,-249 48.98,-242.81 77.45,-229.62 106.62,-217.33"/>
<polygon fill="black" stroke="black" points="106.71,-217.29 110.72,-211.29 117.79,-212.68 113.79,-218.68 106.71,-217.29"/>
</g>
<!-- ndDigest&#45;&gt;ndMerkleTreeInclusionProof -->
<g id="edge40" class="edge">
<title>ndDigest&#45;&gt;ndMerkleTreeInclusionProof</title>
<path fill="none" stroke="black" stroke-dasharray="5,2" d="M451.79,-344.57C404.86,-333.25 326.36,-314.33 262.16,-298.85"/>
<polygon fill="black" stroke="black" points="262.02,-298.82 255.25,-301.3 250.35,-296.01 257.12,-293.52 262.02,-298.82"/>
</g>
<!-- ndDigest&#45;&gt;ndPartialMerkleTree -->
<g id="edge41" class="edge">
<title>ndDigest&#45;&gt;ndPartialMerkleTree</title>
<path fill="none" stroke="black" d="M522.24,-331.94C534.09,-322.8 547.92,-312.13 560.49,-302.43"/>
<polygon fill="black" stroke="black" points="568.54,-296.22 563.37,-305.89 564.58,-299.28 560.62,-302.33 560.62,-302.33 560.62,-302.33 564.58,-299.28 557.87,-298.77 568.54,-296.22 568.54,-296.22"/>
</g>
<!-- ndDigest&#45;&gt;ndMockMmr -->
<g id="edge42" class="edge">
<title>ndDigest&#45;&gt;ndMockMmr</title>
<path fill="none" stroke="black" stroke-dasharray="5,2" d="M451.68,-354.87C350.45,-354.94 93.74,-349.67 30.99,-296 1.81,-271.04 12.38,-251.02 6.99,-213 4.06,-192.32 -6.56,-181.9 6.99,-166 44.75,-121.71 212.19,-110.82 306.63,-108.22"/>
<polygon fill="black" stroke="black" points="306.89,-108.22 312.79,-104.07 318.89,-107.92 312.99,-112.07 306.89,-108.22"/>
</g>
<!-- ndDigest&#45;&gt;ndTip5 -->
<g id="edge43" class="edge">
<title>ndDigest&#45;&gt;ndTip5</title>
<path fill="none" stroke="black" stroke-dasharray="5,2" d="M534.21,-351.02C603.36,-344.36 738.56,-327.61 772.99,-296 817.43,-255.21 782.1,-218.4 811.99,-166 817.71,-155.98 825.44,-146.28 833.26,-137.75"/>
<polygon fill="black" stroke="black" points="840.41,-130.27 836.75,-140.61 836.95,-133.88 833.5,-137.5 833.5,-137.5 833.5,-137.5 836.95,-133.88 830.25,-134.39 840.41,-130.27 840.41,-130.27"/>
</g>
<!-- ndDigest&#45;&gt;ndXFieldElement -->
<g id="edge44" class="edge">
<title>ndDigest&#45;&gt;ndXFieldElement</title>
<path fill="none" stroke="black" stroke-dasharray="5,2" d="M534.17,-349.06C635.42,-335.68 897.81,-301.01 1028.98,-283.68"/>
<polygon fill="black" stroke="black" points="1038.96,-282.36 1029.64,-288.13 1034,-283.01 1029.05,-283.67 1029.05,-283.67 1029.05,-283.67 1034,-283.01 1028.46,-279.21 1038.96,-282.36 1038.96,-282.36"/>
</g>
</g>
</svg>
